<?xml version="1.0" standalone="no"?>
<!DOCTYPE svg PUBLIC "-//W3C//DTD SVG 20010904//EN"
 "http://www.w3.org/TR/2001/REC-SVG-20010904/DTD/svg10.dtd">
<svg version="1.0" xmlns="http://www.w3.org/2000/svg"
 width="736.000000pt" height="736.000000pt" viewBox="0 0 736.000000 736.000000"
 preserveAspectRatio="xMidYMid meet">

<g transform="translate(0.000000,736.000000) scale(0.100000,-0.100000)"
fill="#000000" stroke="none">
<path d="M3130 5023 c-307 -48 -546 -134 -727 -262 -56 -39 -81 -66 -117 -124
-154 -246 -328 -806 -395 -1272 -24 -161 -45 -457 -36 -493 10 -42 80 -135
147 -197 147 -136 362 -242 619 -305 142 -34 257 -47 286 -32 11 6 66 74 122
152 75 103 107 140 119 135 8 -3 72 -15 141 -27 108 -19 163 -22 391 -22 230
0 281 3 390 22 69 12 134 23 144 25 14 1 44 -32 113 -128 124 -172 120 -169
214 -161 157 13 400 86 569 171 164 82 330 227 380 330 20 42 21 55 15 163
-20 357 -85 714 -194 1069 -73 237 -176 481 -247 588 -108 163 -511 336 -864
371 -64 6 -70 5 -94 -19 -14 -14 -34 -56 -47 -97 l-21 -71 -37 5 c-210 33
-432 33 -642 0 l-37 -5 -23 76 c-31 107 -60 125 -169 108z m23 -185 c7 -27 1
-38 -22 -38 -46 0 -281 -87 -410 -151 -124 -62 -145 -76 -157 -105 -16 -39 -7
-74 28 -98 34 -24 52 -20 139 30 222 128 561 218 874 231 352 15 762 -78 1027
-232 43 -25 86 -45 96 -45 27 0 69 35 76 65 13 51 -15 77 -153 149 -111 57
-372 156 -414 156 -27 0 -39 17 -28 37 9 18 16 19 68 11 92 -14 253 -54 326
-82 105 -39 246 -116 287 -155 186 -181 450 -1129 450 -1619 0 -89 0 -90 -40
-139 -125 -158 -402 -296 -691 -346 l-80 -14 -65 85 c-35 47 -64 88 -64 91 0
4 35 19 78 35 148 55 334 157 400 219 38 36 42 72 11 111 -34 43 -74 36 -171
-31 -133 -90 -267 -146 -518 -217 -109 -31 -249 -48 -441 -53 -264 -8 -368 3
-669 71 -68 15 -237 79 -320 121 -27 14 -84 49 -127 78 -43 29 -86 56 -95 60
-26 9 -73 -11 -87 -37 -24 -44 -10 -77 52 -127 67 -54 256 -153 370 -195 42
-16 77 -31 77 -35 0 -3 -29 -44 -64 -91 l-65 -85 -73 12 c-296 52 -570 189
-699 349 -39 49 -39 49 -39 140 0 172 44 478 106 736 108 450 262 823 374 905
57 41 184 105 275 138 65 23 259 70 330 80 17 2 33 5 36 6 4 0 9 -9 12 -21z"/>
<path d="M3087 3910 c-101 -26 -191 -104 -241 -210 -25 -54 -31 -81 -34 -155
-7 -146 31 -240 133 -333 127 -116 312 -117 439 -1 64 58 98 112 121 193 23
78 16 199 -14 279 -29 74 -114 167 -185 202 -59 29 -158 40 -219 25z m173
-184 c21 -14 52 -47 67 -73 25 -42 28 -58 28 -133 0 -75 -3 -91 -28 -132 -112
-191 -357 -101 -357 132 0 183 156 295 290 206z"/>
<path d="M4117 3910 c-56 -14 -95 -37 -148 -87 -174 -163 -173 -445 3 -609
151 -143 388 -111 508 68 56 84 73 150 68 262 -3 76 -9 102 -35 158 -38 81
-105 151 -178 184 -60 28 -159 38 -218 24z m149 -169 c180 -82 160 -401 -28
-452 -122 -32 -239 83 -238 235 1 97 47 178 122 215 53 26 90 26 144 2z"/>
</g>
</svg>
