<svg version="1.1" id="Layer_1" xmlns="http://www.w3.org/2000/svg" xmlns:xlink="http://www.w3.org/1999/xlink" x="0px" y="0px"
	 width="100%" viewBox="0 0 224 224" enable-background="new 0 0 224 224" xml:space="preserve">
<path fill="#000000" opacity="1.000000" stroke="none" 
	d="
M9.742364,142.139862 
	C12.247724,113.770134 19.074757,87.039124 30.153690,61.270267 
	C34.931519,50.157375 43.592022,44.245693 53.945976,39.902401 
	C63.186317,36.026253 72.797752,33.355064 82.774971,32.127811 
	C88.733612,31.394865 90.516602,32.293568 92.291191,38.241081 
	C93.339226,41.753529 94.975304,42.473076 98.422562,41.908031 
	C108.674118,40.227695 119.010155,40.358894 129.242355,42.016388 
	C132.573639,42.556019 133.632660,41.385372 134.575195,38.610218 
	C136.825516,31.984449 138.113007,31.246510 144.792282,32.223690 
	C158.755905,34.266571 172.053040,38.212780 184.166260,45.734688 
	C188.855469,48.646526 192.512512,52.407291 194.804535,57.346317 
	C208.618118,87.113152 216.731888,118.257423 217.392624,151.209503 
	C217.467331,154.935303 216.412201,157.975510 214.139297,160.855377 
	C204.338486,173.273361 190.599670,178.916412 176.055771,183.218338 
	C175.896576,183.265411 175.730087,183.287598 175.567398,183.323181 
	C153.470947,188.158295 158.795715,188.252228 147.516281,173.272842 
	C145.343109,170.386826 143.550262,169.347321 139.721375,170.104446 
	C121.911011,173.626160 104.005898,173.541885 86.201385,169.906357 
	C83.402031,169.334763 81.840904,170.008972 80.344368,172.192581 
	C77.897911,175.762222 75.227608,179.177673 72.741241,182.720978 
	C70.948471,185.275833 68.614258,186.602173 65.499802,186.135239 
	C49.856339,183.789871 34.940857,179.417099 22.028875,169.841339 
	C19.376055,167.873962 17.188187,165.291229 14.688776,163.103180 
	C8.201149,157.423767 9.672247,149.858688 9.742364,142.139862 
M76.567162,156.938828 
	C86.914772,160.311142 97.573952,162.274094 108.405212,162.482529 
	C132.326950,162.942902 155.159607,158.868088 175.228989,144.663116 
	C177.738831,142.886673 180.374649,142.641235 182.330063,145.201065 
	C184.308212,147.790710 183.942017,150.510757 181.330032,152.698425 
	C178.251663,155.276733 174.919647,157.493225 171.312164,159.242325 
	C166.254562,161.694473 161.135010,164.018875 155.969498,166.431778 
	C156.935532,169.675171 159.150284,171.778290 160.842117,174.201523 
	C161.705704,175.438446 162.955841,175.751389 164.377213,175.442200 
	C178.503723,172.369141 192.079697,168.145615 202.839188,157.710358 
	C205.790848,154.847656 207.087418,151.683853 206.957779,147.499008 
	C206.186432,122.597771 199.616409,99.034584 191.903412,75.522995 
	C186.535583,59.160141 175.955414,50.006908 159.848846,46.113529 
	C156.297272,45.255016 152.763535,44.306801 149.183228,43.591919 
	C147.932083,43.342098 146.398285,42.866215 144.849396,44.358475 
	C146.232117,44.856667 147.147598,45.214294 148.080536,45.518330 
	C156.957565,48.411270 165.701080,51.619164 173.758484,56.435707 
	C176.779831,58.241791 178.852737,60.756382 176.877853,64.240417 
	C174.981552,67.585831 171.916061,66.891670 169.015060,65.306786 
	C167.991898,64.747795 166.939484,64.242516 165.913239,63.688957 
	C152.043701,56.207836 137.043304,52.474533 121.491364,51.471169 
	C99.094063,50.026161 77.750145,54.284958 57.987350,65.336143 
	C55.097691,66.952011 52.122612,67.643639 50.105495,64.345795 
	C47.962860,60.842712 49.873333,58.427784 52.999050,56.604298 
	C60.224190,52.389271 67.772278,48.945580 75.837982,46.656311 
	C77.951912,46.056320 80.251892,45.745411 82.996948,43.254856 
	C69.924843,44.311695 59.084217,48.011314 48.948547,53.997002 
	C45.548512,56.004917 43.093079,58.795570 41.374393,62.376217 
	C28.460850,89.279770 21.487192,117.646408 20.050751,147.435745 
	C19.847656,151.647583 21.270285,154.745941 24.175344,157.632263 
	C33.145878,166.544968 44.385059,170.861542 56.287930,173.946350 
	C65.539978,176.344147 66.921783,175.680695 70.999664,166.533112 
	C69.692291,165.233902 67.896500,164.800583 66.220184,164.135666 
	C59.070374,161.299606 52.221977,157.895859 46.102970,153.177582 
	C43.409458,151.100647 42.139580,148.404266 44.356941,145.398605 
	C46.597786,142.361099 49.394489,142.893143 52.224396,144.931198 
	C59.440002,150.127762 67.246948,154.176056 76.567162,156.938828 
z"/>
<path fill="#000000" opacity="1.000000" stroke="none" 
	d="
M145.498901,140.942902 
	C132.385315,141.632553 122.890602,132.832687 121.812897,119.459160 
	C120.838516,107.368027 129.590378,96.309090 141.195435,94.967178 
	C150.893661,93.845757 160.624985,101.630920 163.010849,112.419731 
	C165.902847,125.497246 158.812668,137.287430 145.498901,140.942902 
M153.138016,120.642456 
	C154.535690,111.478882 147.917114,103.562469 140.523819,105.554771 
	C135.370087,106.943558 131.903900,112.773338 132.309143,119.371056 
	C132.649796,124.917229 136.992798,130.112442 141.745956,130.659622 
	C146.736969,131.234177 150.690155,127.946785 153.138016,120.642456 
z"/>
<path fill="#000000" opacity="1.000000" stroke="none" 
	d="
M76.869934,96.490982 
	C89.061928,91.664749 101.803047,99.491341 104.459854,112.785423 
	C107.145515,126.223839 99.391068,138.785431 86.624443,140.978333 
	C77.067657,142.619888 66.710823,134.783478 64.062889,123.907349 
	C61.349560,112.762596 66.251900,102.020180 76.869934,96.490982 
M94.209465,113.596222 
	C91.338203,107.337120 87.492966,104.609497 82.661682,105.404778 
	C78.213501,106.136993 74.332268,110.877296 73.497742,116.597084 
	C72.690147,122.132286 76.875694,129.090530 81.840782,130.466949 
	C86.577560,131.780075 91.601311,128.678650 93.857735,123.164810 
	C95.043144,120.268158 94.756134,117.325256 94.209465,113.596222 
z"/>
</svg>