<?xml version="1.0" standalone="no"?>
<!DOCTYPE svg PUBLIC "-//W3C//DTD SVG 20010904//EN"
 "http://www.w3.org/TR/2001/REC-SVG-20010904/DTD/svg10.dtd">
<svg version="1.0" xmlns="http://www.w3.org/2000/svg"
 width="225.000000pt" height="225.000000pt" viewBox="0 0 225.000000 225.000000"
 preserveAspectRatio="xMidYMid meet">

<g transform="translate(0.000000,225.000000) scale(0.100000,-0.100000)"
fill="#000000" stroke="none">
<path d="M1220 2094 c-114 -30 -206 -106 -255 -210 -38 -79 -45 -125 -52 -316
l-6 -178 -149 0 -148 0 0 -175 0 -175 150 0 150 0 0 -450 0 -450 185 0 185 0
0 450 0 450 149 0 149 0 6 28 c3 15 12 83 21 152 8 69 18 135 20 148 l5 22
-176 0 -175 0 3 154 c3 138 5 158 24 183 34 46 68 56 206 61 l128 5 0 152 0
152 -46 7 c-86 11 -316 5 -374 -10z m324 -30 l46 -7 0 -112 0 -112 -113 -5
c-136 -5 -184 -26 -217 -93 -18 -36 -20 -62 -20 -213 l0 -172 164 0 c91 0 167
-3 169 -7 2 -5 -3 -64 -12 -133 l-16 -125 -152 -3 -153 -3 0 -449 0 -450 -140
0 -140 0 0 450 0 450 -150 0 -150 0 0 135 0 135 149 0 149 0 4 213 c4 192 6
217 27 270 46 115 135 194 256 223 55 13 225 18 299 8z"/>
</g>
</svg>
