<svg version="1.1" id="Layer_1" xmlns="http://www.w3.org/2000/svg" xmlns:xlink="http://www.w3.org/1999/xlink" x="0px" y="0px"
	 width="100%" viewBox="0 0 225 225" enable-background="new 0 0 225 225" xml:space="preserve">
<path fill="none" opacity="1.000000" stroke="#000000" stroke-linecap="round" stroke-linejoin="round" stroke-width="5.000000"
	d="
M131.000000,17.000000 
	C123.307060,18.742786 115.852829,20.571209 109.390694,25.866613 
	C101.998619,31.924065 97.882515,39.466328 96.024895,48.505116 
	C93.954842,58.577583 94.590828,68.813477 94.504066,79.000038 
	C94.477798,82.083916 94.500000,85.168205 94.500000,89.000000 
	C84.424423,89.000000 74.586922,89.000000 64.625000,89.000000 
	C64.625000,99.333336 64.625000,109.166664 64.625000,119.460037 
	C74.504143,120.918236 84.477608,119.139397 94.500000,120.468384 
	C94.500000,150.166199 94.500000,179.583801 94.500000,209.500000 
	C105.320213,209.500000 115.906166,209.500000 127.000000,209.500000 
	C127.000000,179.835205 127.000000,150.164795 127.000000,120.000000 
	C135.659866,120.000000 143.829941,120.010780 152.000000,119.996254 
	C157.584488,119.986320 157.411377,119.686340 158.107147,114.013138 
	C158.906326,107.496651 159.275726,100.897392 160.937393,94.483780 
	C161.322647,92.996819 161.224945,91.274567 159.874283,89.125000 
	C149.512619,89.125000 138.496841,89.125000 126.826782,89.125000 
	C127.673935,77.500107 125.442146,66.390282 128.129288,55.531998 
	C129.538696,49.836842 133.944626,46.991272 139.973587,45.859344 
	C147.390884,44.466755 154.911087,45.821850 162.375000,44.470390 
	C162.375000,35.833332 162.375000,27.416666 162.375000,18.733368 
	C152.157471,15.912263 141.770065,17.358131 131.500000,17.000000 
"/>
</svg>