<?xml version="1.0" standalone="no"?>
<!DOCTYPE svg PUBLIC "-//W3C//DTD SVG 20010904//EN"
 "http://www.w3.org/TR/2001/REC-SVG-20010904/DTD/svg10.dtd">
<svg version="1.0" xmlns="http://www.w3.org/2000/svg"
 width="400.000000pt" height="400.000000pt" viewBox="0 0 400.000000 400.000000"
 preserveAspectRatio="xMidYMid meet">

<g transform="translate(0.000000,400.000000) scale(0.100000,-0.100000)"
fill="#000000" stroke="none">
<path d="M0 2000 l0 -2000 2000 0 2000 0 0 2000 0 2000 -2000 0 -2000 0 0
-2000z m2105 1711 c33 -10 78 -26 99 -36 66 -28 179 -111 223 -163 57 -67 120
-167 128 -201 3 -15 24 -45 47 -67 64 -61 80 -106 77 -227 -3 -135 8 -206 35
-229 41 -36 100 -60 157 -65 l58 -6 -20 -29 c-12 -16 -20 -30 -18 -32 2 -2 27
-13 54 -26 67 -32 201 -168 242 -245 17 -33 40 -90 51 -127 l20 -68 -24 6
c-23 6 -24 5 -14 -21 5 -14 10 -41 10 -58 0 -26 11 -43 59 -90 33 -31 67 -74
76 -95 13 -29 27 -42 63 -57 62 -25 187 -150 240 -240 37 -62 40 -70 23 -73
-17 -3 -17 -8 11 -74 26 -61 30 -84 30 -163 0 -62 -5 -112 -17 -149 -19 -59
-28 -67 -44 -39 -7 14 -11 10 -16 -22 -13 -70 -54 -142 -118 -207 l-62 -63 -3
32 -3 33 -36 -35 c-45 -43 -118 -71 -212 -81 -73 -7 -73 -7 -62 15 11 20 10
21 -37 21 -27 0 -64 3 -83 7 -41 8 -117 82 -125 122 -4 20 -15 33 -35 41 -56
24 -109 107 -109 172 0 10 -9 32 -20 50 -11 18 -20 41 -20 52 0 13 -16 2 -55
-40 -82 -88 -80 -103 41 -245 156 -184 179 -224 218 -378 32 -128 33 -140 8
-118 -27 25 -31 21 -25 -25 4 -42 4 -42 -42 40 -26 46 -45 86 -42 88 3 3 19
-1 35 -10 l30 -15 -15 57 c-27 107 -102 224 -237 370 -45 48 -76 91 -76 103 0
25 40 199 46 199 2 0 10 -12 18 -27 l14 -28 22 50 c28 62 60 179 60 217 0 35
5 35 35 1 15 -18 20 -33 15 -43 -4 -8 -13 -40 -20 -70 -14 -65 -3 -123 34
-167 14 -18 25 -47 29 -78 4 -39 12 -55 37 -78 25 -22 34 -26 46 -16 11 9 14
8 14 -5 0 -9 9 -21 20 -28 11 -7 20 -24 20 -38 0 -39 37 -90 78 -107 29 -12
56 -14 120 -9 83 7 84 7 77 -15 -7 -21 -5 -22 34 -15 63 10 129 45 159 84 15
19 37 46 49 61 l22 26 7 -33 7 -33 23 22 c37 35 74 118 74 166 0 23 7 61 17
84 l16 42 17 -33 c17 -32 17 -32 23 -9 4 13 7 57 7 97 0 84 -23 158 -69 227
-36 54 -38 65 -11 58 27 -7 25 1 -12 55 -49 72 -127 144 -193 179 -48 25 -65
41 -84 78 -14 26 -48 68 -78 94 -50 44 -53 51 -62 112 -5 35 -16 82 -25 103
-20 49 -21 48 9 40 14 -3 25 -3 25 1 0 4 -19 44 -42 88 -56 109 -146 199 -250
253 -61 31 -77 43 -72 57 3 11 -1 19 -13 23 -48 17 -109 50 -139 77 -29 24
-34 36 -34 72 0 23 -5 57 -11 75 -9 24 -9 48 1 99 10 58 10 72 -7 121 -14 42
-28 62 -59 85 -30 21 -44 40 -49 65 -20 100 -128 229 -273 327 -63 41 -135 63
-260 79 l-53 7 21 -36 22 -36 -24 -5 c-13 -3 -41 -8 -63 -11 -53 -8 -137 -47
-186 -86 -43 -34 -43 -49 2 -49 38 0 37 -9 -7 -51 -20 -18 -70 -85 -110 -146
-45 -68 -89 -123 -111 -137 l-36 -25 27 -11 c15 -5 34 -10 42 -10 21 0 18 -13
-21 -78 -33 -56 -82 -108 -135 -143 l-25 -17 50 -7 c28 -3 55 -8 60 -10 19 -5
-59 -33 -142 -49 -99 -20 -176 -51 -150 -61 29 -12 20 -21 -50 -53 -38 -17
-83 -41 -101 -55 l-33 -25 28 -7 27 -6 -40 -24 c-93 -57 -96 -58 -105 -43 -5
7 -9 29 -9 49 0 28 6 40 30 57 16 12 37 36 45 52 9 17 22 30 29 30 15 0 76 64
76 80 0 5 20 12 45 16 25 3 60 16 78 28 42 29 89 122 95 190 4 51 3 54 -30 79
-23 18 -37 40 -46 72 -21 77 -41 90 -252 156 -101 32 -140 33 -185 3 -26 -17
-166 -194 -269 -342 -32 -45 -83 -104 -113 -130 l-54 -47 30 -13 c17 -6 31
-15 31 -19 0 -3 -20 -43 -45 -88 -47 -87 -91 -211 -102 -291 l-6 -48 28 22
c15 12 30 21 32 19 2 -2 -4 -37 -13 -78 -22 -100 -22 -209 0 -296 10 -40 22
-73 26 -73 4 0 12 17 17 38 l9 37 28 -90 c15 -49 38 -109 52 -132 22 -39 108
-123 125 -123 4 0 3 15 -2 32 -14 51 -12 52 39 9 60 -51 123 -79 198 -87 l59
-7 -32 35 c-40 41 -41 46 -6 41 23 -4 84 13 233 63 8 3 -2 -11 -23 -31 -21
-20 -37 -39 -34 -41 8 -8 98 24 152 55 30 17 57 31 59 31 3 0 8 -17 11 -37 13
-82 29 -140 52 -193 l25 -55 17 34 18 34 6 -49 c6 -61 -19 -147 -68 -228 -19
-32 -35 -61 -35 -64 0 -2 16 -2 35 1 40 7 42 4 16 -31 -58 -83 -150 -276 -137
-289 2 -2 22 7 45 21 l41 26 -19 -47 c-66 -167 -80 -202 -91 -238 -15 -49 -72
-177 -76 -172 -11 10 49 262 73 311 16 30 8 30 -29 -2 -23 -20 -23 -10 3 86
11 42 42 124 70 181 27 57 49 105 49 107 0 2 -9 4 -19 4 -50 0 -52 10 -12 58
48 58 91 142 91 179 0 15 -16 60 -35 98 -20 39 -41 97 -47 130 -7 33 -13 62
-15 64 -1 2 -13 -3 -26 -12 -44 -28 -136 -49 -198 -45 l-59 4 20 -21 c11 -12
20 -24 20 -27 0 -3 -22 -11 -49 -18 -57 -13 -135 -2 -206 29 -44 20 -45 20
-45 0 0 -26 -16 -24 -76 10 -68 39 -158 138 -180 198 -19 54 -34 75 -34 51 0
-8 -6 -21 -14 -27 -11 -9 -20 7 -47 86 -30 90 -33 109 -34 221 0 92 -3 119
-11 107 -22 -30 -26 -14 -22 78 6 102 51 258 107 363 17 32 28 61 26 64 -3 4
-17 10 -32 13 -38 9 -62 27 -45 34 6 2 39 24 71 48 60 44 89 80 276 339 152
210 191 225 410 152 77 -26 154 -56 173 -68 41 -25 72 -73 72 -111 0 -15 7
-30 15 -33 49 -19 72 -141 40 -218 -20 -48 -6 -47 61 4 54 41 114 125 98 139
-5 4 -30 16 -56 25 -27 10 -48 21 -48 24 0 4 17 15 38 24 64 30 109 76 177
179 37 55 68 106 71 113 4 9 -7 16 -31 20 l-36 7 57 52 c82 76 128 104 211
131 l74 23 -35 31 c-20 17 -36 33 -36 36 0 22 193 13 275 -13z m102 -181 c28
-16 67 -49 86 -72 39 -47 96 -150 99 -177 0 -9 4 7 7 34 l6 50 17 -31 c10 -18
22 -51 27 -75 8 -36 7 -47 -6 -61 -15 -17 -14 -18 9 -18 32 0 89 -38 105 -70
7 -14 13 -43 13 -64 l0 -39 -23 21 c-13 12 -27 22 -32 22 -5 0 0 -7 11 -15 18
-13 16 -14 -21 -12 -27 1 -47 -4 -60 -16 -12 -11 -31 -16 -50 -14 -26 3 -30 7
-30 34 0 17 -3 29 -7 26 -11 -6 -10 11 2 23 5 5 5 15 1 23 -6 9 -11 10 -15 2
-4 -6 -1 -11 6 -11 11 0 11 -2 0 -9 -7 -4 -16 -23 -19 -42 -2 -18 -12 -42 -20
-54 -15 -20 -15 -20 -8 2 6 22 5 22 -21 8 -31 -16 -81 -10 -104 12 -8 8 -10
13 -5 12 6 -1 17 -1 25 0 13 1 13 2 0 11 -9 5 -19 5 -27 -2 -9 -7 -20 -4 -40
9 -66 45 -130 56 -154 26 -8 -9 -14 -19 -14 -22 0 -3 -4 -5 -8 -3 -5 1 -6 -2
-2 -8 3 -5 1 -10 -4 -10 -6 0 -11 -4 -11 -8 0 -5 18 -7 39 -5 37 3 39 1 43
-30 3 -17 9 -41 13 -51 7 -16 5 -18 -10 -13 -16 7 -16 5 -4 -9 8 -10 15 -12
17 -5 2 7 14 4 32 -9 17 -12 44 -20 68 -20 35 0 39 -3 35 -20 -3 -12 -29 -31
-67 -49 l-61 -29 -13 24 c-7 13 -15 24 -18 24 -2 0 2 -12 10 -27 13 -27 12
-30 -32 -78 -25 -27 -42 -43 -37 -35 4 8 4 12 0 7 -5 -4 -9 -15 -10 -25 -1 -9
-8 -36 -15 -59 -8 -27 -10 -57 -5 -90 l8 -48 14 50 c29 102 48 137 101 186 55
50 132 84 139 62 3 -7 11 -9 19 -6 29 11 59 -7 77 -47 10 -22 22 -40 27 -40 5
0 14 14 22 30 7 17 20 30 29 30 8 0 24 7 35 15 29 22 50 18 78 -15 36 -43 49
-101 41 -182 -4 -37 -4 -68 -1 -68 3 0 12 12 20 28 l15 27 17 -40 c17 -39 30
-156 22 -205 -3 -22 -7 -18 -33 30 l-29 55 -7 -55 c-3 -30 -14 -80 -23 -110
-9 -30 -20 -71 -24 -90 l-9 -35 -12 58 c-12 57 -31 69 -31 21 0 -31 -54 -146
-81 -169 -18 -18 -19 -17 -20 11 0 16 -4 38 -8 49 -7 18 -11 15 -29 -22 -20
-39 -50 -67 -112 -106 l-25 -16 0 69 c0 37 -3 66 -7 63 -5 -2 -8 2 -8 11 0 8
-15 34 -33 58 -54 72 -69 99 -63 114 3 9 1 12 -4 9 -6 -3 -11 2 -12 12 -1 10
-4 -11 -7 -47 -5 -48 -2 -70 8 -83 8 -9 12 -19 9 -22 -7 -7 -86 102 -115 160
-14 27 -36 76 -48 109 l-23 60 -6 -42 c-3 -23 -9 -61 -12 -83 l-6 -41 -19 42
c-10 23 -16 46 -13 51 3 5 1 9 -4 9 -11 0 -32 76 -32 114 0 14 -4 26 -10 26
-5 0 -10 -9 -10 -21 0 -13 -4 -18 -12 -13 -7 4 -8 3 -4 -4 4 -7 4 -28 0 -48
l-7 -37 -14 27 c-24 46 -36 183 -20 244 15 56 11 64 -18 32 -10 -12 -25 -18
-32 -15 -8 2 -11 1 -8 -4 3 -5 1 -12 -5 -16 -15 -9 -12 32 7 93 13 42 34 72
87 129 68 73 79 96 34 72 -12 -7 -49 -20 -81 -30 l-58 -17 33 37 c18 21 50 66
71 100 22 36 43 58 49 55 7 -5 8 -2 4 5 -5 7 -1 20 6 29 32 37 28 42 -11 17
-23 -14 -53 -30 -67 -35 l-25 -10 27 48 c15 26 32 53 37 59 13 17 28 6 20 -15
-3 -9 -3 -14 1 -11 11 10 16 50 5 44 -26 -17 -4 17 36 54 48 44 42 50 -25 26
-23 -8 -44 -15 -47 -15 -7 0 54 84 73 101 31 27 140 59 201 59 l58 0 -37 25
c-20 14 -42 25 -48 25 -6 0 -21 5 -33 12 -20 11 -19 13 23 19 25 4 65 2 90 -3
25 -6 54 -12 66 -13 26 -4 80 -31 89 -45 3 -5 11 -10 17 -10 15 0 -19 50 -56
82 -42 37 -15 36 51 -2z m-1251 -291 c66 -22 129 -50 142 -62 24 -23 29 -65
10 -86 -11 -11 -10 -12 1 -6 9 5 12 3 9 -6 -3 -8 -13 -16 -23 -17 -12 -3 -15
0 -10 9 5 8 4 10 -3 5 -6 -4 -22 0 -34 8 -27 18 -153 66 -171 66 -20 -1 34
-40 105 -76 83 -42 99 -75 62 -132 -13 -19 -18 -21 -30 -11 -13 11 -11 14 13
25 l28 12 -35 -4 c-25 -4 -58 5 -119 31 -46 19 -86 34 -88 32 -7 -8 58 -57
107 -82 25 -13 52 -30 59 -38 14 -18 9 -113 -8 -130 -8 -8 -11 -7 -11 3 0 7
-7 22 -17 32 -9 11 -11 18 -5 18 7 0 12 -4 12 -10 0 -5 7 -7 15 -4 26 10 16
20 -22 22 -20 2 -57 12 -82 23 -24 10 -46 17 -48 15 -3 -3 44 -43 86 -73 8 -5
7 -49 -1 -66 -5 -10 -14 -14 -20 -11 -7 4 -8 3 -4 -4 10 -17 -33 -37 -48 -22
-8 8 -7 15 7 24 16 12 15 14 -13 19 -16 4 -30 12 -30 19 0 9 3 9 12 0 7 -7 16
-12 21 -12 5 0 -10 16 -33 35 -23 19 -45 35 -48 35 -4 0 4 -9 18 -20 17 -13
20 -20 10 -20 -13 0 -13 -1 0 -10 13 -9 13 -10 0 -10 -11 0 -16 -9 -15 -27 0
-26 -3 -28 -40 -27 -22 0 -48 4 -58 8 -13 6 -16 5 -11 -7 6 -16 92 -57 119
-57 14 0 16 -7 13 -31 -10 -63 23 -160 85 -257 49 -77 72 -140 72 -198 0 -33
-8 -51 -34 -84 l-34 -43 27 7 c21 5 26 4 20 -6 -4 -8 -3 -10 2 -5 5 5 9 14 9
20 1 7 7 11 14 9 7 -1 10 2 7 7 -4 5 3 25 14 43 11 18 20 42 20 54 0 11 3 24
7 28 11 11 2 108 -13 145 -8 18 -14 35 -14 36 0 20 232 61 287 50 22 -4 20 -1
-12 15 -22 11 -48 20 -57 20 -9 0 -29 5 -45 11 -25 9 -26 12 -10 20 9 6 23 7
30 3 6 -4 9 -3 4 1 -4 5 19 22 50 38 l58 28 -78 -3 -78 -3 33 28 c61 51 102
67 175 67 78 0 108 -11 76 -29 -11 -5 -23 -8 -27 -6 -3 3 -4 2 -1 -2 3 -4 -8
-14 -26 -23 l-32 -17 59 1 c33 0 69 -5 82 -12 20 -11 22 -20 22 -89 0 -42 8
-104 17 -137 l17 -60 19 45 20 44 8 -40 c14 -63 40 -127 70 -171 16 -23 25
-45 21 -49 -4 -5 -2 -5 4 -2 6 4 29 -9 52 -28 28 -24 43 -32 48 -24 4 8 3 9
-4 5 -8 -5 -12 2 -12 21 0 15 -3 39 -6 53 -4 17 4 11 25 -23 35 -53 145 -167
162 -167 7 0 10 12 7 29 -4 28 0 25 56 -35 34 -36 80 -100 103 -141 l41 -76
61 58 61 58 0 -32 0 -33 39 31 c21 17 65 65 96 106 32 41 60 75 62 75 3 0 2
-17 -1 -37 l-7 -38 25 30 c38 44 96 163 96 196 0 38 14 37 30 -2 7 -16 17 -26
21 -22 15 15 61 254 57 299 -3 39 -1 44 17 44 11 0 38 5 60 12 l40 11 -31 8
c-41 12 -57 32 -93 116 -46 107 -41 113 36 44 46 -41 103 -78 173 -113 68 -34
120 -68 148 -96 58 -60 56 -78 -7 -46 -80 42 -90 29 -32 -40 75 -89 110 -161
124 -261 12 -82 14 -86 49 -110 35 -24 108 -109 108 -126 0 -4 -17 -5 -37 -2
l-38 5 25 -25 c16 -17 49 -32 90 -43 59 -15 143 -55 155 -73 2 -5 -19 -6 -48
-3 l-52 5 75 -54 c41 -30 89 -73 107 -97 31 -40 69 -141 61 -162 -2 -5 -23 5
-47 21 -42 29 -43 30 -36 7 9 -26 9 -85 1 -143 -5 -28 -3 -36 4 -25 5 8 10 26
11 40 0 14 3 19 6 12 10 -26 -20 -136 -43 -159 -13 -13 -20 -23 -17 -23 4 0
-4 -11 -17 -25 -29 -31 -32 -28 -19 16 15 51 27 159 17 159 -4 0 -8 6 -8 13 0
6 -9 41 -20 77 -11 36 -25 84 -30 108 -13 49 -57 104 -100 122 -16 7 -30 18
-30 25 0 7 -8 19 -17 26 -15 11 -16 11 -5 -1 6 -8 12 -17 12 -20 0 -3 -45 -5
-100 -5 l-101 0 6 25 c3 14 15 37 25 52 l19 26 -27 -8 c-28 -8 -73 -30 -103
-52 -23 -16 -76 17 -100 62 -22 41 -28 207 -7 194 7 -4 8 -3 4 5 -5 7 -5 23
-2 36 5 18 11 22 28 18 18 -4 13 4 -22 36 -25 23 -56 52 -70 66 l-26 25 -11
-63 c-13 -78 -73 -211 -116 -256 -42 -44 -99 -79 -161 -101 -45 -15 -48 -18
-31 -27 11 -6 43 -16 72 -23 44 -10 57 -9 83 3 l30 15 -6 -26 c-11 -49 -46
-113 -93 -171 -90 -112 -187 -212 -242 -251 l-57 -40 34 68 c19 37 34 69 34
71 0 2 -21 -20 -46 -48 -27 -30 -53 -50 -60 -47 -8 3 -13 0 -11 -6 2 -10 -146
-107 -165 -108 -3 0 2 17 12 38 50 98 93 222 79 222 -5 0 -14 -9 -21 -21 -7
-11 -35 -37 -63 -58 -57 -43 -195 -125 -200 -119 -7 7 20 72 46 113 14 22 33
61 43 88 10 26 23 47 28 47 6 0 8 3 5 6 -4 4 -26 -11 -50 -32 -24 -21 -71 -63
-105 -92 l-61 -53 -16 37 c-8 20 -12 41 -8 47 3 5 1 7 -5 4 -6 -5 -13 8 -17
33 -8 48 -23 43 -31 -11 -8 -49 -17 -55 -37 -26 -9 12 -29 38 -46 56 -41 48
-84 129 -77 147 3 8 2 13 -3 10 -5 -3 -11 6 -14 19 -4 24 -3 24 13 10 9 -8 22
-15 29 -15 7 0 10 -4 7 -8 -5 -9 3 -10 109 -17 l80 -5 -67 34 c-82 44 -152
120 -179 196 -18 53 -25 110 -13 110 4 0 35 -23 70 -50 105 -83 185 -103 328
-84 l48 7 -46 20 c-25 11 -43 23 -40 28 3 5 -1 7 -8 4 -17 -6 -94 49 -90 64 1
7 -1 10 -6 7 -12 -7 -73 54 -66 65 3 5 1 8 -5 7 -5 -2 -17 6 -26 17 -15 19
-16 19 -10 -12 8 -40 -2 -41 -41 -5 -64 58 -106 136 -154 284 -13 43 -64 131
-68 120 -2 -6 1 -20 7 -31 6 -11 11 -28 11 -38 0 -15 -2 -14 -15 5 -9 12 -35
35 -59 52 -41 27 -45 28 -57 12 -7 -9 -9 -14 -4 -9 4 4 19 -3 32 -15 18 -17
23 -32 23 -74 0 -70 -27 -128 -90 -191 -53 -54 -79 -69 -60 -34 5 11 15 32 20
47 l11 27 -33 -27 c-99 -80 -242 -146 -315 -146 -18 0 -33 -4 -33 -9 0 -18 12
-41 19 -37 4 3 13 1 19 -3 8 -5 -2 -8 -23 -9 -41 -2 -99 25 -160 72 -51 39
-64 56 -65 81 0 38 -21 -1 -27 -54 l-6 -52 -27 26 c-36 35 -70 124 -71 188 0
29 -4 75 -8 102 l-7 50 -17 -54 c-9 -30 -17 -66 -17 -80 -1 -25 -1 -25 -13 -6
-20 33 -16 239 7 308 10 31 22 57 27 57 4 0 11 -15 14 -32 4 -18 17 -53 30
-77 l22 -44 6 109 c3 60 15 152 26 204 15 69 17 97 9 105 -7 6 -9 6 -5 0 3 -6
-17 -25 -43 -42 l-49 -32 18 52 c20 58 88 197 97 197 3 0 2 -5 -2 -12 -4 -7
-3 -8 4 -4 6 4 9 12 7 19 -3 7 18 44 45 82 28 39 69 98 91 132 42 65 110 133
133 133 8 0 67 -18 132 -41z m1049 -179 c-3 -5 -11 -10 -16 -10 -6 0 -7 5 -4
10 3 6 11 10 16 10 6 0 7 -4 4 -10z m-815 -51 c0 -24 -4 -38 -10 -34 -5 3 -7
0 -5 -8 8 -20 -37 -82 -63 -85 -12 -2 -22 -1 -22 3 0 18 84 174 91 169 5 -3 9
-23 9 -45z m933 -10 c12 -7 34 -22 49 -35 22 -18 24 -23 12 -28 -46 -18 -94 8
-94 51 0 26 3 27 33 12z m367 -39 c0 -16 -46 -41 -64 -34 -24 9 -20 19 17 36
32 16 47 15 47 -2z m-132 -48 c6 -9 12 -28 12 -44 0 -31 3 -33 30 -18 31 16
54 -31 25 -52 -5 -4 -13 -2 -17 5 -5 8 -17 2 -38 -20 -17 -18 -34 -33 -39 -33
-4 0 -22 16 -40 36 -30 34 -33 36 -45 19 -13 -18 -14 -18 -25 4 -19 34 3 54
51 48 34 -5 38 -3 37 16 0 21 -1 21 -9 2 -8 -19 -9 -19 -9 3 -1 12 -8 25 -16
28 -11 5 -12 10 -5 18 13 17 72 8 88 -12z m202 -14 c29 -63 24 -165 -5 -118
-15 24 -22 7 -14 -31 15 -66 4 -69 -20 -6 -12 32 -28 72 -37 89 -14 28 -14 32
0 46 8 9 19 13 23 9 3 -4 -2 -14 -13 -23 -18 -14 -18 -15 4 -4 15 7 21 17 18
26 -5 12 12 54 22 54 2 0 12 -19 22 -42z m490 -1343 c0 -3 -20 -14 -45 -25
-30 -13 -53 -32 -72 -62 -25 -38 -28 -52 -28 -123 0 -76 -1 -80 -24 -83 -16
-3 -21 0 -16 9 6 8 4 10 -5 4 -28 -17 -40 55 -20 127 20 72 117 158 177 158
18 0 33 -2 33 -5z m242 -55 c15 -16 30 -46 33 -67 3 -21 12 -51 20 -68 10 -20
16 -71 17 -155 2 -104 0 -131 -15 -158 -10 -19 -22 -30 -29 -26 -7 4 -8 3 -4
-4 4 -7 -17 -23 -57 -42 -80 -37 -170 -42 -208 -10 l-24 19 25 1 c63 1 193 61
207 95 3 8 9 12 14 9 5 -3 6 2 3 10 -5 12 -12 10 -40 -9 -56 -38 -177 -58
-202 -33 -7 7 -12 8 -12 4 0 -5 -7 -3 -15 4 -8 7 -15 22 -15 34 0 19 9 24 65
35 67 14 177 60 190 81 6 9 1 10 -16 4 -13 -5 -37 -8 -52 -8 -16 1 -24 -2 -17
-6 6 -4 -14 -12 -43 -20 -30 -7 -60 -9 -67 -5 -9 5 -11 4 -6 -3 5 -8 -1 -12
-14 -12 -28 0 -70 43 -70 72 0 21 10 27 88 50 79 25 178 75 167 86 -3 3 -25
-3 -50 -12 -24 -10 -50 -14 -57 -10 -7 4 -9 3 -5 -1 4 -5 -12 -15 -35 -22 -74
-22 -100 -16 -113 26 -6 20 -5 23 10 17 15 -5 16 -4 5 9 -11 13 -11 18 0 28
10 10 11 9 5 -2 -5 -9 -4 -12 3 -7 7 4 12 18 12 31 0 32 48 60 146 84 94 23
120 20 156 -19z m-608 -658 c17 -19 25 -35 21 -43 -5 -7 -4 -10 3 -5 10 6 79
-81 70 -89 -2 -2 -23 5 -48 16 -38 16 -51 30 -82 87 -20 37 -37 71 -37 75 0 4
-10 17 -23 28 -13 11 -3 7 22 -9 25 -17 58 -44 74 -60z"/>
<path d="M2063 3485 c0 -8 5 -12 10 -8 5 3 23 -5 40 -18 21 -15 27 -17 18 -5
-8 9 -26 23 -41 31 -23 12 -27 12 -27 0z"/>
<path d="M2150 3410 c20 -13 33 -13 25 0 -3 6 -14 10 -23 10 -15 0 -15 -2 -2
-10z"/>
<path d="M2090 3396 c0 -2 7 -7 16 -10 8 -3 12 -2 9 4 -6 10 -25 14 -25 6z"/>
<path d="M1978 3373 c18 -2 45 -2 60 0 15 2 0 4 -33 4 -33 0 -45 -2 -27 -4z"/>
<path d="M2166 3337 c3 -10 9 -15 12 -12 3 3 0 11 -7 18 -10 9 -11 8 -5 -6z"/>
<path d="M2024 3308 l-19 -23 23 19 c21 18 27 26 19 26 -2 0 -12 -10 -23 -22z"/>
<path d="M2055 3310 c-4 -6 -3 -9 2 -8 13 5 53 -28 45 -37 -4 -5 -1 -5 6 -1
16 10 16 9 -17 34 -18 13 -32 18 -36 12z"/>
<path d="M1913 3240 c-17 -4 -47 -17 -65 -28 l-33 -22 39 0 c37 0 38 -1 20
-14 -16 -13 -17 -17 -5 -28 10 -9 12 -9 7 0 -4 6 -2 12 3 12 14 0 14 4 -8 -55
-31 -83 -34 -104 -14 -101 9 2 19 9 21 17 3 11 1 11 -7 -1 -6 -9 -11 -10 -11
-3 0 17 81 84 93 76 6 -3 7 -1 4 4 -9 14 22 26 37 14 11 -9 52 -15 71 -11 6 2
-8 6 -29 9 -48 7 -56 23 -19 40 l28 13 -25 10 c-29 12 -24 15 53 26 31 5 57 5
57 0 0 -4 10 -8 22 -8 17 0 19 3 10 12 -6 6 -20 13 -29 15 -10 2 -27 5 -38 7
-11 3 -36 9 -55 15 -39 12 -79 13 -127 1z"/>
<path d="M2290 3143 c0 -13 14 -28 30 -31 11 -3 10 2 -4 17 -20 22 -26 25 -26
14z"/>
<path d="M2076 3092 c-2 -4 4 -8 14 -8 10 0 16 4 14 8 -3 4 -9 8 -14 8 -5 0
-11 -4 -14 -8z"/>
<path d="M2378 3032 c-4 -15 -2 -19 8 -15 8 3 22 -1 32 -8 9 -7 14 -9 10 -5
-4 5 -3 15 3 22 8 10 5 11 -11 7 -13 -3 -25 0 -30 6 -5 9 -9 7 -12 -7z"/>
<path d="M1849 2927 c-53 -41 -104 -220 -69 -242 5 -3 7 0 4 8 -3 8 2 20 11
27 14 11 15 2 9 -89 -5 -68 -4 -101 3 -101 6 0 36 44 67 98 46 80 125 192 100
142 -4 -9 -3 -12 2 -7 5 5 9 12 9 15 0 4 4 13 8 20 12 18 -6 15 -60 -12 l-48
-25 -8 52 c-4 29 -7 69 -5 90 4 40 1 43 -23 24z"/>
<path d="M1889 2923 c-13 -16 -12 -17 4 -4 9 7 17 15 17 17 0 8 -8 3 -21 -13z"/>
<path d="M2000 2852 c0 -4 9 -13 20 -20 11 -7 20 -9 20 -4 0 4 -9 13 -20 20
-11 7 -20 9 -20 4z"/>
<path d="M1646 2778 c3 -5 10 -6 15 -3 13 9 11 12 -6 12 -8 0 -12 -4 -9 -9z"/>
<path d="M2132 2649 c-23 -12 -51 -34 -63 -50 -11 -16 -25 -27 -30 -23 -5 3
-9 2 -8 -3 3 -14 -33 -93 -41 -88 -4 2 -7 -2 -7 -11 0 -9 7 -12 19 -8 19 6 27
-19 9 -30 -15 -10 8 -87 39 -130 29 -38 43 -36 18 3 -6 10 -8 26 -5 35 6 15 9
15 36 1 34 -17 58 -18 189 -7 86 6 96 9 118 35 15 18 24 41 24 63 0 19 4 33 9
30 13 -9 31 41 31 88 0 31 -6 48 -23 64 -27 26 -47 29 -108 18 -38 -6 -54 -4
-87 13 -51 26 -66 26 -120 0z m123 -50 c4 -6 33 -9 71 -7 75 3 94 -8 76 -47
-14 -30 -29 -33 -28 -5 1 10 -2 19 -6 20 -5 0 -44 0 -87 0 -73 0 -80 -2 -87
-22 -6 -21 -7 -21 -20 -3 -15 20 -19 57 -7 68 10 11 81 8 88 -4z m-110 -159
c6 -18 15 -20 93 -20 103 0 133 6 125 26 -3 8 -1 14 5 14 10 0 22 -23 22 -41
0 -5 -8 -17 -19 -28 -16 -16 -26 -17 -72 -10 -30 5 -78 6 -107 3 -58 -7 -82 5
-82 41 0 38 24 49 35 15z"/>
<path d="M2381 2309 c-13 -10 -32 -19 -42 -19 -22 0 -23 -4 -9 -31 16 -29 38
-23 57 16 12 24 19 31 25 23 5 -10 8 -8 8 4 0 26 -13 28 -39 7z"/>
<path d="M2280 2299 c0 -6 -4 -7 -10 -4 -5 3 -10 1 -10 -4 0 -6 -20 -11 -46
-11 -32 0 -43 3 -38 12 5 7 3 8 -6 3 -10 -6 -6 -15 18 -35 18 -15 32 -35 33
-46 0 -14 2 -15 6 -4 3 8 24 31 46 51 33 29 38 37 24 42 -9 3 -17 2 -17 -4z"/>
<path d="M2370 2220 c0 -5 5 -10 11 -10 5 0 7 5 4 10 -3 6 -8 10 -11 10 -2 0
-4 -4 -4 -10z"/>
<path d="M714 3134 c-10 -8 -13 -13 -7 -9 16 8 53 15 53 10 0 -5 -74 -49 -81
-47 -3 0 -6 -5 -6 -13 0 -14 15 -5 85 52 l27 22 -26 1 c-14 0 -34 -7 -45 -16z"/>
<path d="M699 2983 c-12 -16 -12 -17 1 -7 8 6 22 14 30 17 13 5 12 6 -1 6 -9
1 -23 -7 -30 -16z"/>
<path d="M695 2849 c-4 -6 -5 -12 -2 -15 2 -3 7 2 10 11 7 17 1 20 -8 4z"/>
<path d="M875 2750 c4 -6 11 -8 16 -5 14 9 11 15 -7 15 -8 0 -12 -5 -9 -10z"/>
<path d="M741 2544 c0 -11 3 -14 6 -6 3 7 2 16 -1 19 -3 4 -6 -2 -5 -13z"/>
<path d="M732 2500 c0 -14 2 -19 5 -12 2 6 2 18 0 25 -3 6 -5 1 -5 -13z"/>
<path d="M601 2434 c0 -11 3 -14 6 -6 3 7 2 16 -1 19 -3 4 -6 -2 -5 -13z"/>
<path d="M591 2384 c0 -11 3 -14 6 -6 3 7 2 16 -1 19 -3 4 -6 -2 -5 -13z"/>
<path d="M591 2260 c0 -8 4 -24 9 -35 5 -13 9 -14 9 -5 0 8 -4 24 -9 35 -5 13
-9 14 -9 5z"/>
<path d="M1090 2250 c-18 -12 -2 -12 25 0 13 6 15 9 5 9 -8 0 -22 -4 -30 -9z"/>
<path d="M1020 2220 c-9 -6 -10 -10 -3 -10 6 0 15 5 18 10 8 12 4 12 -15 0z"/>
<path d="M2906 2217 c3 -10 9 -15 12 -12 3 3 0 11 -7 18 -10 9 -11 8 -5 -6z"/>
<path d="M2781 2166 c-1 -25 2 -47 6 -49 8 -5 9 80 1 88 -2 3 -5 -15 -7 -39z"/>
<path d="M2945 2180 c10 -11 20 -20 23 -20 3 0 -3 9 -13 20 -10 11 -20 20 -23
20 -3 0 3 -9 13 -20z"/>
<path d="M732 2152 c1 -19 5 -29 10 -24 5 5 5 19 -1 33 -8 22 -9 22 -9 -9z"/>
<path d="M640 2143 c0 -5 12 -20 28 -34 l27 -24 -25 30 c-14 17 -26 32 -27 34
-2 2 -3 0 -3 -6z"/>
<path d="M816 2115 c-9 -26 -7 -32 5 -12 6 10 9 21 6 23 -2 3 -7 -2 -11 -11z"/>
<path d="M2996 2107 c3 -10 9 -15 12 -12 3 3 0 11 -7 18 -10 9 -11 8 -5 -6z"/>
<path d="M696 2067 c3 -10 9 -15 12 -12 3 3 0 11 -7 18 -10 9 -11 8 -5 -6z"/>
<path d="M2712 1990 c0 -14 2 -19 5 -12 2 6 2 18 0 25 -3 6 -5 1 -5 -13z"/>
<path d="M3003 1973 c9 -2 25 -2 35 0 9 3 1 5 -18 5 -19 0 -27 -2 -17 -5z"/>
<path d="M2686 1953 c-6 -14 -5 -15 5 -6 7 7 10 15 7 18 -3 3 -9 -2 -12 -12z"/>
<path d="M2597 1903 c-2 -21 -2 -41 2 -45 3 -4 7 13 9 38 3 54 -4 59 -11 7z"/>
<path d="M2645 1890 c-3 -6 1 -7 9 -4 18 7 21 14 7 14 -6 0 -13 -4 -16 -10z"/>
<path d="M2460 1820 c-9 -6 -10 -10 -3 -10 6 0 15 5 18 10 8 12 4 12 -15 0z"/>
<path d="M3060 1786 c0 -2 7 -7 16 -10 8 -3 12 -2 9 4 -6 10 -25 14 -25 6z"/>
<path d="M3160 1749 c0 -5 5 -7 10 -4 6 3 10 8 10 11 0 2 -4 4 -10 4 -5 0 -10
-5 -10 -11z"/>
<path d="M2189 1653 c-13 -16 -12 -17 4 -4 9 7 17 15 17 17 0 8 -8 3 -21 -13z"/>
<path d="M2139 1613 c-13 -16 -12 -17 4 -4 16 13 21 21 13 21 -2 0 -10 -8 -17
-17z"/>
<path d="M1900 1550 c-9 -6 -10 -10 -3 -10 6 0 15 5 18 10 8 12 4 12 -15 0z"/>
<path d="M2124 1458 l-29 -33 33 29 c30 28 37 36 29 36 -2 0 -16 -15 -33 -32z"/>
<path d="M2000 1460 c0 -5 7 -7 15 -4 8 4 15 8 15 10 0 2 -7 4 -15 4 -8 0 -15
-4 -15 -10z"/>
<path d="M2171 1434 c0 -11 3 -14 6 -6 3 7 2 16 -1 19 -3 4 -6 -2 -5 -13z"/>
<path d="M2288 1415 c-21 -19 -34 -35 -30 -35 8 0 72 58 72 66 0 7 -4 4 -42
-31z"/>
<path d="M2372 1407 c-20 -21 -20 -23 -2 -23 10 0 16 4 13 9 -2 4 1 14 7 22
20 24 6 17 -18 -8z"/>
<path d="M2151 1364 c0 -11 3 -14 6 -6 3 7 2 16 -1 19 -3 4 -6 -2 -5 -13z"/>
<path d="M2209 1353 c-13 -16 -12 -17 4 -4 9 7 17 15 17 17 0 8 -8 3 -21 -13z"/>
<path d="M3495 1230 c3 -5 8 -10 11 -10 2 0 4 5 4 10 0 6 -5 10 -11 10 -5 0
-7 -4 -4 -10z"/>
<path d="M2310 2783 c8 -3 18 -10 21 -15 3 -5 9 -3 12 6 5 12 0 16 -21 15 -16
0 -21 -3 -12 -6z"/>
<path d="M3043 1353 c9 -2 25 -2 35 0 9 3 1 5 -18 5 -19 0 -27 -2 -17 -5z"/>
<path d="M3050 1216 c0 -2 7 -7 16 -10 8 -3 12 -2 9 4 -6 10 -25 14 -25 6z"/>
<path d="M3237 1133 c-9 -2 -15 -9 -11 -14 4 -6 10 -6 17 -1 7 6 21 12 32 15
l20 5 -20 0 c-11 0 -28 -2 -38 -5z"/>
</g>
</svg>
