<svg version="1.1" id="Layer_1" xmlns="http://www.w3.org/2000/svg" xmlns:xlink="http://www.w3.org/1999/xlink" x="0px" y="0px"
	 width="100%" viewBox="0 0 225 225" enable-background="new 0 0 225 225" xml:space="preserve">
<path fill="#000000" opacity="1.000000" stroke="none" 
	d="
M153.000000,226.000000 
	C102.000000,226.000000 51.500008,226.000000 1.000007,226.000000 
	C1.000005,151.000000 1.000005,76.000015 1.000002,1.000017 
	C75.999992,1.000011 150.999985,1.000011 225.999969,1.000006 
	C225.999985,75.999985 225.999985,150.999969 226.000000,225.999969 
	C201.833328,226.000000 177.666672,226.000000 153.000000,226.000000 
M40.991425,81.909264 
	C41.044983,113.608475 41.098537,145.307678 41.027508,177.880829 
	C42.460148,178.245804 43.890186,178.914871 45.325848,178.927170 
	C55.851524,179.017242 66.378326,178.975754 77.242149,178.975754 
	C77.242149,185.633698 77.242149,191.718658 77.242149,197.237747 
	C91.395195,200.623032 102.936867,197.428146 111.211739,185.284348 
	C112.223122,183.800095 113.576202,182.380249 115.090179,181.450348 
	C116.907433,180.334152 119.043121,179.164764 121.082657,179.084930 
	C128.391846,178.798874 135.723511,179.106689 143.035507,178.859604 
	C144.932983,178.795471 147.274307,178.023911 148.589661,176.737000 
	C160.476303,165.107422 172.215332,153.325607 183.880569,141.473221 
	C184.994736,140.341171 185.863007,138.441711 185.906113,136.872696 
	C186.084076,130.394455 185.900116,123.906281 186.007202,116.622810 
	C185.954269,96.746246 185.901337,76.869682 185.990509,56.099087 
	C185.993988,55.099453 185.875473,54.081589 186.021667,53.103283 
	C186.723633,48.406124 185.028854,46.855751 180.059448,46.881840 
	C140.574036,47.089111 101.087029,46.992905 61.600510,47.000584 
	C53.100208,47.002239 50.008636,49.111313 48.041111,56.097294 
	C47.564713,57.788822 46.906487,59.429871 46.447308,61.125393 
	C44.656673,67.737289 42.912403,74.361732 40.991425,81.909264 
z"/>
<path fill="#FEFEFE" opacity="1.000000" stroke="none" 
	d="
M185.849152,117.421753 
	C185.900116,123.906281 186.084076,130.394455 185.906113,136.872696 
	C185.863007,138.441711 184.994736,140.341171 183.880569,141.473221 
	C172.215332,153.325607 160.476303,165.107422 148.589661,176.737000 
	C147.274307,178.023911 144.932983,178.795471 143.035507,178.859604 
	C135.723511,179.106689 128.391846,178.798874 121.082657,179.084930 
	C119.043121,179.164764 116.907433,180.334152 115.090179,181.450348 
	C113.576202,182.380249 112.223122,183.800095 111.211739,185.284348 
	C102.936867,197.428146 91.395195,200.623032 77.242149,197.237747 
	C77.242149,191.718658 77.242149,185.633698 77.242149,178.975754 
	C66.378326,178.975754 55.851524,179.017242 45.325848,178.927170 
	C43.890186,178.914871 42.460148,178.245804 41.473763,177.335358 
	C42.280579,175.264542 42.952526,173.739853 42.955692,172.213791 
	C43.018204,142.089066 43.005154,111.964195 42.990376,81.839363 
	C42.990059,81.200539 42.788021,80.561813 42.642097,79.698189 
	C41.902855,80.334373 41.526871,80.657944 41.150890,80.981514 
	C42.912403,74.361732 44.656673,67.737289 46.447308,61.125393 
	C46.906487,59.429871 47.564713,57.788822 48.041111,56.097294 
	C50.008636,49.111313 53.100208,47.002239 61.600510,47.000584 
	C101.087029,46.992905 140.574036,47.089111 180.059448,46.881840 
	C185.028854,46.855751 186.723633,48.406124 186.021667,53.103283 
	C185.875473,54.081589 185.993988,55.099453 185.536072,56.655258 
	C184.726273,57.904934 184.062790,58.597454 184.060562,59.292095 
	C184.001266,77.754883 183.983780,96.218040 184.085709,114.680435 
	C184.090775,115.597427 185.235229,116.508125 185.849152,117.421753 
M64.972359,140.495819 
	C64.972359,145.264008 64.972359,150.032196 64.972359,155.199738 
	C75.277367,155.199738 85.019173,155.199738 95.166824,155.199738 
	C95.166824,161.282288 95.166824,166.955734 95.166824,172.791489 
	C96.534164,171.330811 97.550232,170.122818 98.691963,169.048355 
	C102.291290,165.661072 106.607056,162.787048 109.352654,158.819656 
	C111.520599,155.686951 113.642540,154.939758 116.968781,154.980301 
	C126.631699,155.098068 136.300323,155.170563 145.958298,154.926971 
	C147.983765,154.875885 150.386002,153.854965 151.902008,152.489655 
	C156.486526,148.360809 160.476486,143.556946 165.160355,139.557449 
	C169.827438,135.572266 171.406525,131.115509 171.259583,124.929726 
	C170.804611,105.778374 171.073166,86.609833 171.061111,67.447960 
	C171.060013,65.690475 171.060959,63.932999 171.060959,62.283501 
	C135.344666,62.283501 100.276024,62.283501 65.000587,62.283501 
	C65.000587,88.219795 65.000587,113.858429 64.972359,140.495819 
M184.412003,138.484329 
	C184.412003,138.484329 184.523270,138.417130 184.412003,138.484329 
z"/>
<path fill="#F4F4F4" opacity="1.000000" stroke="none" 
	d="
M41.071156,81.445389 
	C41.526871,80.657944 41.902855,80.334373 42.642097,79.698189 
	C42.788021,80.561813 42.990059,81.200539 42.990376,81.839363 
	C43.005154,111.964195 43.018204,142.089066 42.955692,172.213791 
	C42.952526,173.739853 42.280579,175.264542 41.536057,176.898376 
	C41.098537,145.307678 41.044983,113.608475 41.071156,81.445389 
z"/>
<path fill="#F4F4F4" opacity="1.000000" stroke="none" 
	d="
M185.928177,117.022278 
	C185.235229,116.508125 184.090775,115.597427 184.085709,114.680435 
	C183.983780,96.218040 184.001266,77.754883 184.060562,59.292095 
	C184.062790,58.597454 184.726273,57.904934 185.465012,57.102272 
	C185.901337,76.869682 185.954269,96.746246 185.928177,117.022278 
z"/>
<path fill="#000000" opacity="1.000000" stroke="none" 
	d="
M64.986473,139.996429 
	C65.000587,113.858429 65.000587,88.219795 65.000587,62.283501 
	C100.276024,62.283501 135.344666,62.283501 171.060959,62.283501 
	C171.060959,63.932999 171.060013,65.690475 171.061111,67.447960 
	C171.073166,86.609833 170.804611,105.778374 171.259583,124.929726 
	C171.406525,131.115509 169.827438,135.572266 165.160355,139.557449 
	C160.476486,143.556946 156.486526,148.360809 151.902008,152.489655 
	C150.386002,153.854965 147.983765,154.875885 145.958298,154.926971 
	C136.300323,155.170563 126.631699,155.098068 116.968781,154.980301 
	C113.642540,154.939758 111.520599,155.686951 109.352654,158.819656 
	C106.607056,162.787048 102.291290,165.661072 98.691963,169.048355 
	C97.550232,170.122818 96.534164,171.330811 95.166824,172.791489 
	C95.166824,166.955734 95.166824,161.282288 95.166824,155.199738 
	C85.019173,155.199738 75.277367,155.199738 64.972359,155.199738 
	C64.972359,150.032196 64.972359,145.264008 64.986473,139.996429 
M113.945854,87.457153 
	C113.629738,87.361786 113.313622,87.266426 112.075829,87.039383 
	C107.751633,87.039383 103.427437,87.039383 99.891266,87.039383 
	C99.587997,90.217644 99.360565,92.601196 98.966461,95.910912 
	C99.022003,104.278984 99.077545,112.647049 99.060486,121.721169 
	C99.448967,122.805893 99.837448,123.890610 100.076645,125.830513 
	C104.567772,126.137779 109.058647,126.449982 113.553787,126.678360 
	C113.596451,126.680527 113.695808,125.566833 113.907242,124.049263 
	C113.881165,112.035484 113.855095,100.021713 113.945854,87.457153 
M135.997192,102.503281 
	C135.997192,110.582809 135.997192,118.662331 135.997192,126.657150 
	C141.059387,126.657150 145.453918,126.657150 149.701111,126.657150 
	C149.701111,113.295120 149.701111,100.238487 149.701111,87.294678 
	C144.991318,87.294678 140.589630,87.294678 135.997208,87.294678 
	C135.997208,92.226639 135.997208,96.865669 135.997192,102.503281 
z"/>
<path fill="#F4F4F4" opacity="1.000000" stroke="none" 
	d="
M184.467636,138.450729 
	C184.523270,138.417130 184.412003,138.484329 184.467636,138.450729 
z"/>
<path fill="#FEFEFE" opacity="1.000000" stroke="none" 
	d="
M135.997192,102.003990 
	C135.997208,96.865669 135.997208,92.226639 135.997208,87.294678 
	C140.589630,87.294678 144.991318,87.294678 149.701111,87.294678 
	C149.701111,100.238487 149.701111,113.295120 149.701111,126.657150 
	C145.453918,126.657150 141.059387,126.657150 135.997192,126.657150 
	C135.997192,118.662331 135.997192,110.582809 135.997192,102.003990 
z"/>
<path fill="#FEFEFE" opacity="1.000000" stroke="none" 
	d="
M100.225937,124.975334 
	C99.837448,123.890610 99.448967,122.805893 99.486130,121.264961 
	C100.258865,120.294464 100.903168,119.783119 100.908302,119.265434 
	C100.980515,111.996674 101.025009,104.725952 100.890930,97.459129 
	C100.875511,96.623810 99.746048,95.809044 99.133133,94.984749 
	C99.360565,92.601196 99.587997,90.217644 99.891266,87.039383 
	C103.427437,87.039383 107.751633,87.039383 112.633270,87.282623 
	C113.358185,87.746521 113.570953,87.907211 113.829018,88.007935 
	C113.855095,100.021713 113.881165,112.035484 113.389732,124.514557 
	C108.656792,124.978348 104.441368,124.976837 100.225937,124.975334 
z"/>
<path fill="#E7E7E7" opacity="1.000000" stroke="none" 
	d="
M99.049789,95.447830 
	C99.746048,95.809044 100.875511,96.623810 100.890930,97.459129 
	C101.025009,104.725952 100.980515,111.996674 100.908302,119.265434 
	C100.903168,119.783119 100.258865,120.294464 99.522430,120.911942 
	C99.077545,112.647049 99.022003,104.278984 99.049789,95.447830 
z"/>
<path fill="#E7E7E7" opacity="1.000000" stroke="none" 
	d="
M100.151291,125.402924 
	C104.441368,124.976837 108.656792,124.978348 113.320465,124.976974 
	C113.695808,125.566833 113.596451,126.680527 113.553787,126.678360 
	C109.058647,126.449982 104.567772,126.137779 100.151291,125.402924 
z"/>
<path fill="#E7E7E7" opacity="1.000000" stroke="none" 
	d="
M113.887436,87.732544 
	C113.570953,87.907211 113.358185,87.746521 113.094101,87.348465 
	C113.313622,87.266426 113.629738,87.361786 113.887436,87.732544 
z"/>
</svg>