<svg version="1.1" id="Layer_1" xmlns="http://www.w3.org/2000/svg" xmlns:xlink="http://www.w3.org/1999/xlink" x="0px" y="0px"
	 width="100%" viewBox="0 0 225 225" enable-background="new 0 0 225 225" xml:space="preserve">
<path fill="#010101" opacity="1.000000" stroke="none" 
	d="
M158.000000,226.000000 
	C105.333336,226.000000 53.166672,226.000000 1.000007,226.000000 
	C1.000005,151.000000 1.000005,76.000015 1.000002,1.000017 
	C75.999992,1.000011 150.999985,1.000011 225.999969,1.000006 
	C225.999985,75.999985 225.999985,150.999969 226.000000,225.999969 
	C203.500000,226.000000 181.000000,226.000000 158.000000,226.000000 
M111.632751,184.075684 
	C114.790085,179.554794 119.073860,178.175354 124.527542,178.599701 
	C130.321411,179.050522 136.196503,178.973190 141.997299,178.569077 
	C144.367493,178.403961 147.187500,177.343384 148.861160,175.719589 
	C160.095093,164.820343 171.159882,153.741470 182.046051,142.494873 
	C183.660294,140.827209 184.856781,137.973648 184.872589,135.659348 
	C185.063629,107.681709 185.000168,79.702316 184.983597,51.723389 
	C184.982849,50.468864 184.797150,49.214451 184.690918,47.875771 
	C144.481598,47.875771 104.680229,47.875767 64.878868,47.875767 
	C51.924614,47.875763 51.864811,47.853531 47.380856,59.913563 
	C45.432583,65.153625 42.319118,70.485611 42.243851,75.811310 
	C41.770863,109.279419 42.003162,142.757523 42.014351,176.232315 
	C42.014565,176.870544 42.162708,177.508713 42.310989,178.704742 
	C54.089920,178.704742 65.804619,178.704742 77.863403,178.704742 
	C77.863403,185.365219 77.863403,191.462616 77.863403,197.509033 
	C89.462776,198.918518 100.436287,199.546692 107.620300,188.128708 
	C108.484322,186.755463 109.940987,185.755127 111.632751,184.075684 
z"/>
<path fill="#FBFBFB" opacity="1.000000" stroke="none" 
	d="
M111.377853,184.328812 
	C109.940987,185.755127 108.484322,186.755463 107.620300,188.128708 
	C100.436287,199.546692 89.462776,198.918518 77.863403,197.509033 
	C77.863403,191.462616 77.863403,185.365219 77.863403,178.704742 
	C65.804619,178.704742 54.089920,178.704742 42.310989,178.704742 
	C42.162708,177.508713 42.014565,176.870544 42.014351,176.232315 
	C42.003162,142.757523 41.770863,109.279419 42.243851,75.811310 
	C42.319118,70.485611 45.432583,65.153625 47.380856,59.913563 
	C51.864811,47.853531 51.924614,47.875763 64.878868,47.875767 
	C104.680229,47.875767 144.481598,47.875771 184.690918,47.875771 
	C184.797150,49.214451 184.982849,50.468864 184.983597,51.723389 
	C185.000168,79.702316 185.063629,107.681709 184.872589,135.659348 
	C184.856781,137.973648 183.660294,140.827209 182.046051,142.494873 
	C171.159882,153.741470 160.095093,164.820343 148.861160,175.719589 
	C147.187500,177.343384 144.367493,178.403961 141.997299,178.569077 
	C136.196503,178.973190 130.321411,179.050522 124.527542,178.599701 
	C119.073860,178.175354 114.790085,179.554794 111.377853,184.328812 
M171.734528,82.500275 
	C171.734528,75.411293 171.734528,68.322311 171.734528,61.413658 
	C135.419327,61.413658 99.849884,61.413658 64.274567,61.413658 
	C64.274567,92.834137 64.274567,123.920944 64.274567,155.450760 
	C74.279037,155.450760 84.044037,155.450760 94.463364,155.450760 
	C94.463364,161.699234 94.463364,167.517990 94.463364,173.336746 
	C94.860268,173.502808 95.257179,173.668854 95.654083,173.834915 
	C100.258446,169.053040 105.019852,164.409760 109.408447,159.437439 
	C112.053108,156.441040 114.881668,155.200836 118.926033,155.334732 
	C127.911591,155.632217 136.918137,155.577225 145.905869,155.314590 
	C147.964539,155.254456 150.434418,154.260834 151.937988,152.861740 
	C157.787231,147.419006 163.488235,141.790436 168.874619,135.893280 
	C170.456284,134.161621 171.574371,131.325470 171.611725,128.974991 
	C171.852539,113.819893 171.734665,98.659103 171.734528,82.500275 
z"/>
<path fill="#020202" opacity="1.000000" stroke="none" 
	d="
M171.734528,83.000229 
	C171.734665,98.659103 171.852539,113.819893 171.611725,128.974991 
	C171.574371,131.325470 170.456284,134.161621 168.874619,135.893280 
	C163.488235,141.790436 157.787231,147.419006 151.937988,152.861740 
	C150.434418,154.260834 147.964539,155.254456 145.905869,155.314590 
	C136.918137,155.577225 127.911591,155.632217 118.926033,155.334732 
	C114.881668,155.200836 112.053108,156.441040 109.408447,159.437439 
	C105.019852,164.409760 100.258446,169.053040 95.654083,173.834915 
	C95.257179,173.668854 94.860268,173.502808 94.463364,173.336746 
	C94.463364,167.517990 94.463364,161.699234 94.463364,155.450760 
	C84.044037,155.450760 74.279037,155.450760 64.274567,155.450760 
	C64.274567,123.920944 64.274567,92.834137 64.274567,61.413658 
	C99.849884,61.413658 135.419327,61.413658 171.734528,61.413658 
	C171.734528,68.322311 171.734528,75.411293 171.734528,83.000229 
M100.064980,105.500641 
	C100.064980,112.276306 100.064980,119.051971 100.064980,125.900558 
	C104.883728,125.900558 109.105194,125.900558 113.456078,125.900558 
	C113.456078,112.838638 113.456078,100.112053 113.456078,87.343964 
	C108.908615,87.343964 104.665741,87.343964 100.064987,87.343964 
	C100.064987,93.246109 100.064987,98.873787 100.064980,105.500641 
M136.001236,111.496567 
	C136.001236,116.281235 136.001236,121.065903 136.001236,126.002678 
	C140.509857,126.002678 144.570312,126.002678 148.789673,126.002678 
	C148.789673,112.969246 148.789673,100.131905 148.789673,87.359299 
	C144.390945,87.359299 140.322449,87.359299 136.001236,87.359299 
	C136.001236,95.252129 136.001236,102.874687 136.001236,111.496567 
z"/>
<path fill="#F3F3F3" opacity="1.000000" stroke="none" 
	d="
M100.064987,105.001053 
	C100.064987,98.873787 100.064987,93.246109 100.064987,87.343964 
	C104.665741,87.343964 108.908615,87.343964 113.456078,87.343964 
	C113.456078,100.112053 113.456078,112.838638 113.456078,125.900558 
	C109.105194,125.900558 104.883728,125.900558 100.064980,125.900558 
	C100.064980,119.051971 100.064980,112.276306 100.064987,105.001053 
z"/>
<path fill="#FDFDFD" opacity="1.000000" stroke="none" 
	d="
M136.001236,110.996902 
	C136.001236,102.874687 136.001236,95.252129 136.001236,87.359299 
	C140.322449,87.359299 144.390945,87.359299 148.789673,87.359299 
	C148.789673,100.131905 148.789673,112.969246 148.789673,126.002678 
	C144.570312,126.002678 140.509857,126.002678 136.001236,126.002678 
	C136.001236,121.065903 136.001236,116.281235 136.001236,110.996902 
z"/>
</svg>