<svg version="1.1" id="Layer_1" xmlns="http://www.w3.org/2000/svg" xmlns:xlink="http://www.w3.org/1999/xlink" x="0px" y="0px"
	 width="100%" viewBox="0 0 225 225" enable-background="new 0 0 225 225" xml:space="preserve">
<path fill="#FBFBFB" opacity="1.000000" stroke="none" 
	d="
M1.000000,82.000000 
	C1.000000,54.666672 1.000000,27.833344 1.000000,1.000011 
	C75.999977,1.000007 150.999954,1.000007 225.999954,1.000004 
	C225.999969,75.999969 225.999969,150.999939 225.999985,225.999939 
	C151.000046,225.999954 76.000092,225.999954 1.000068,225.999969 
	C1.000000,178.166672 1.000000,130.333328 1.000000,82.000000 
M190.500168,5.676950 
	C136.859756,5.676916 83.219246,5.718207 29.579159,5.584711 
	C25.968031,5.575724 24.309572,6.676026 23.135132,10.014920 
	C19.450804,20.489346 15.385183,30.829145 11.633400,41.280731 
	C10.757855,43.719795 10.089814,46.393772 10.084856,48.961128 
	C9.993804,96.104614 10.016458,143.248322 10.028247,190.391983 
	C10.028566,191.672180 10.175633,192.952347 10.278684,194.630020 
	C26.844954,194.630020 43.099857,194.630020 59.891670,194.630020 
	C59.891670,203.761444 59.891670,212.485733 59.891670,221.321762 
	C70.261520,221.321762 80.086517,221.452682 89.902100,221.207184 
	C91.780350,221.160202 94.023643,220.049164 95.412689,218.714981 
	C102.857735,211.564102 109.994377,204.091415 117.466125,196.969711 
	C118.946121,195.559067 121.409378,194.510513 123.445496,194.464722 
	C134.268066,194.221329 145.104172,194.528854 155.923187,194.216400 
	C158.409027,194.144608 161.462387,193.015793 163.210175,191.305893 
	C180.236526,174.648453 197.103012,157.825272 213.814804,140.852127 
	C215.536392,139.103607 216.839310,136.078323 216.850250,133.638809 
	C217.034180,92.659637 216.981689,51.679405 216.981689,10.699406 
	C216.981689,9.086056 216.981674,7.472706 216.981674,5.676941 
	C208.134781,5.676941 199.817474,5.676941 190.500168,5.676950 
z"/>
<path fill="#010101" opacity="1.000000" stroke="none" 
	d="
M191.000168,5.676946 
	C199.817474,5.676941 208.134781,5.676941 216.981674,5.676941 
	C216.981674,7.472706 216.981689,9.086056 216.981689,10.699406 
	C216.981689,51.679405 217.034180,92.659637 216.850250,133.638809 
	C216.839310,136.078323 215.536392,139.103607 213.814804,140.852127 
	C197.103012,157.825272 180.236526,174.648453 163.210175,191.305893 
	C161.462387,193.015793 158.409027,194.144608 155.923187,194.216400 
	C145.104172,194.528854 134.268066,194.221329 123.445496,194.464722 
	C121.409378,194.510513 118.946121,195.559067 117.466125,196.969711 
	C109.994377,204.091415 102.857735,211.564102 95.412689,218.714981 
	C94.023643,220.049164 91.780350,221.160202 89.902100,221.207184 
	C80.086517,221.452682 70.261520,221.321762 59.891670,221.321762 
	C59.891670,212.485733 59.891670,203.761444 59.891670,194.630020 
	C43.099857,194.630020 26.844954,194.630020 10.278684,194.630020 
	C10.175633,192.952347 10.028566,191.672180 10.028247,190.391983 
	C10.016458,143.248322 9.993804,96.104614 10.084856,48.961128 
	C10.089814,46.393772 10.757855,43.719795 11.633400,41.280731 
	C15.385183,30.829145 19.450804,20.489346 23.135132,10.014920 
	C24.309572,6.676026 25.968031,5.575724 29.579159,5.584711 
	C83.219246,5.718207 136.859756,5.676916 191.000168,5.676946 
M194.646545,46.501080 
	C194.646545,40.398293 194.646545,34.295509 194.646545,28.286226 
	C146.219345,28.286226 98.473984,28.286226 50.667427,28.286226 
	C50.667427,70.324074 50.667427,112.058228 50.667427,154.221771 
	C62.733612,154.221771 74.490829,154.221771 86.569229,154.221771 
	C86.569229,163.072784 86.569229,171.494263 86.569229,181.621170 
	C94.836098,173.129684 102.195679,165.766647 109.304924,158.169342 
	C112.081154,155.202515 114.884583,153.790588 119.152954,153.881851 
	C133.977280,154.198853 148.814102,154.108841 163.641968,153.889664 
	C165.824402,153.857407 168.493378,152.828201 170.067474,151.340179 
	C177.447052,144.364120 184.668762,137.203033 191.601471,129.785233 
	C193.287903,127.980782 194.497467,124.961189 194.518295,122.488464 
	C194.728821,97.493988 194.646591,72.497047 194.646545,46.501080 
z"/>
<path fill="#FCFCFC" opacity="1.000000" stroke="none" 
	d="
M194.646545,47.000938 
	C194.646591,72.497047 194.728821,97.493988 194.518295,122.488464 
	C194.497467,124.961189 193.287903,127.980782 191.601471,129.785233 
	C184.668762,137.203033 177.447052,144.364120 170.067474,151.340179 
	C168.493378,152.828201 165.824402,153.857407 163.641968,153.889664 
	C148.814102,154.108841 133.977280,154.198853 119.152954,153.881851 
	C114.884583,153.790588 112.081154,155.202515 109.304924,158.169342 
	C102.195679,165.766647 94.836098,173.129684 86.569229,181.621170 
	C86.569229,171.494263 86.569229,163.072784 86.569229,154.221771 
	C74.490829,154.221771 62.733612,154.221771 50.667427,154.221771 
	C50.667427,112.058228 50.667427,70.324074 50.667427,28.286226 
	C98.473984,28.286226 146.219345,28.286226 194.646545,28.286226 
	C194.646545,34.295509 194.646545,40.398293 194.646545,47.000938 
M117.984573,104.499100 
	C117.984573,89.600693 117.984573,74.702286 117.984573,59.831696 
	C108.726128,59.831696 100.106941,59.831696 91.246590,59.831696 
	C91.246590,80.670967 91.246590,101.373398 91.246590,122.112404 
	C100.203033,122.112404 108.927238,122.112404 117.984573,122.112404 
	C117.984573,116.417976 117.984573,110.958374 117.984573,104.499100 
M161.422974,122.334618 
	C161.954163,121.020554 162.940689,119.708977 162.947906,118.392044 
	C163.048889,99.927856 163.023224,81.462936 162.998642,62.998230 
	C162.997208,61.918095 162.741959,60.838299 162.618149,59.863228 
	C153.663879,59.863228 145.055374,59.863228 136.266800,59.863228 
	C136.266800,80.735176 136.266800,101.440392 136.266800,122.348381 
	C144.497635,122.348381 152.466507,122.348381 161.422974,122.334618 
z"/>
<path fill="#010101" opacity="1.000000" stroke="none" 
	d="
M117.984573,104.998940 
	C117.984573,110.958374 117.984573,116.417976 117.984573,122.112404 
	C108.927238,122.112404 100.203033,122.112404 91.246590,122.112404 
	C91.246590,101.373398 91.246590,80.670967 91.246590,59.831696 
	C100.106941,59.831696 108.726128,59.831696 117.984573,59.831696 
	C117.984573,74.702286 117.984573,89.600693 117.984573,104.998940 
z"/>
<path fill="#000000" opacity="1.000000" stroke="none" 
	d="
M160.929169,122.341499 
	C152.466507,122.348381 144.497635,122.348381 136.266800,122.348381 
	C136.266800,101.440392 136.266800,80.735176 136.266800,59.863228 
	C145.055374,59.863228 153.663879,59.863228 162.618149,59.863228 
	C162.741959,60.838299 162.997208,61.918095 162.998642,62.998230 
	C163.023224,81.462936 163.048889,99.927856 162.947906,118.392044 
	C162.940689,119.708977 161.954163,121.020554 160.929169,122.341499 
z"/>
</svg>