<svg version="1.1" id="Layer_1" xmlns="http://www.w3.org/2000/svg" xmlns:xlink="http://www.w3.org/1999/xlink" x="0px" y="0px"
	 width="100%" viewBox="0 0 225 225" enable-background="new 0 0 225 225" xml:space="preserve">
<path fill="#FCFCFC" opacity="1.000000" stroke="none" 
	d="
M218.000000,1.000000 
	C220.665009,1.000000 223.330017,1.000000 225.996277,1.000000 
	C225.997513,75.951744 225.997513,150.903488 225.997513,225.927612 
	C151.094910,225.927612 76.189720,225.927612 1.142268,225.927612 
	C1.142268,151.000198 1.142268,76.000137 1.142268,1.000000 
	C8.071058,1.000000 15.066747,1.000000 22.561852,1.293939 
	C23.096375,1.781746 23.131481,1.975614 23.067949,2.529996 
	C20.184637,10.181439 17.604525,17.558950 14.564348,24.741735 
	C10.620061,34.060585 8.874591,43.527946 8.963405,53.775215 
	C9.340041,97.231400 9.123158,140.692719 9.123123,184.152161 
	C9.123122,186.100037 9.123123,188.047897 9.123123,190.805435 
	C26.822622,190.805435 43.993420,190.805435 61.796684,190.805435 
	C61.796684,200.400574 61.796684,209.182739 61.785316,218.301788 
	C62.179176,218.740372 62.584408,218.842072 63.449646,219.043533 
	C71.071037,219.148743 78.246086,219.407578 85.386398,219.022400 
	C87.890846,218.887283 90.868927,217.765289 92.671440,216.072479 
	C100.558250,208.665695 107.992081,200.777740 115.839279,193.326614 
	C117.438171,191.808426 120.094498,190.685959 122.291893,190.636017 
	C133.943771,190.371078 145.607681,190.640137 157.260025,190.385620 
	C159.476715,190.337204 162.214966,189.333923 163.773727,187.810532 
	C180.801102,171.169815 197.593628,154.289017 214.586563,137.612656 
	C217.044937,135.200073 218.052841,132.813171 218.045105,129.362259 
	C217.951370,87.559891 218.011047,45.757172 218.181076,3.602985 
	C218.220886,2.500952 218.110443,1.750476 218.000000,1.000000 
z"/>
<path fill="#9F9F9F" opacity="1.000000" stroke="none" 
	d="
M217.531342,1.000000 
	C218.110443,1.750476 218.220886,2.500952 218.007324,3.635058 
	C217.683319,4.018689 217.353348,3.892304 217.278992,3.442886 
	C216.484207,2.693835 215.763275,2.131451 215.043427,2.132838 
	C194.931351,2.171611 174.819366,2.267464 154.463470,2.264607 
	C153.881989,2.218986 153.544403,2.262670 152.830292,2.215425 
	C150.641937,2.165812 148.830093,2.207129 146.562805,2.180928 
	C142.732224,2.164212 139.357117,2.215015 135.519958,2.190349 
	C123.936455,2.098403 112.814903,2.048272 101.693512,2.072239 
	C76.135773,2.127317 50.578114,2.218475 24.717806,2.218179 
	C23.998989,2.150739 23.582788,2.160110 23.166586,2.169481 
	C23.131481,1.975614 23.096375,1.781746 23.030636,1.293939 
	C87.687561,1.000000 152.375122,1.000000 217.531342,1.000000 
z"/>
<path fill="#0F0F0F" opacity="1.000000" stroke="none" 
	d="
M23.067949,2.529996 
	C23.582788,2.160110 23.998989,2.150739 24.837841,2.588018 
	C26.143190,3.356203 27.025505,3.957680 27.908651,3.958907 
	C62.736923,4.007296 97.565323,4.018404 132.393433,3.928946 
	C133.591034,3.925870 134.785873,2.844563 135.981995,2.265818 
	C139.357117,2.215015 142.732224,2.164212 146.661835,2.536514 
	C149.213150,2.741863 151.209991,2.524109 153.206833,2.306355 
	C153.544403,2.262670 153.881989,2.218986 154.712555,2.661618 
	C156.462402,3.432535 157.719055,3.963759 158.976166,3.964817 
	C178.435196,3.981193 197.894272,3.928782 217.353348,3.892304 
	C217.353348,3.892304 217.683319,4.018689 217.857056,3.986616 
	C218.011047,45.757172 217.951370,87.559891 218.045105,129.362259 
	C218.052841,132.813171 217.044937,135.200073 214.586563,137.612656 
	C197.593628,154.289017 180.801102,171.169815 163.773727,187.810532 
	C162.214966,189.333923 159.476715,190.337204 157.260025,190.385620 
	C145.607681,190.640137 133.943771,190.371078 122.291893,190.636017 
	C120.094498,190.685959 117.438171,191.808426 115.839279,193.326614 
	C107.992081,200.777740 100.558250,208.665695 92.671440,216.072479 
	C90.868927,217.765289 87.890846,218.887283 85.386398,219.022400 
	C78.246086,219.407578 71.071037,219.148743 63.309078,218.818176 
	C62.404560,218.317001 62.100620,218.140961 61.796684,217.964905 
	C61.796684,209.182739 61.796684,200.400574 61.796684,190.805435 
	C43.993420,190.805435 26.822622,190.805435 9.123123,190.805435 
	C9.123123,188.047897 9.123122,186.100037 9.123123,184.152161 
	C9.123158,140.692719 9.340041,97.231400 8.963405,53.775215 
	C8.874591,43.527946 10.620061,34.060585 14.564348,24.741735 
	C17.604525,17.558950 20.184637,10.181439 23.067949,2.529996 
M42.557278,22.896389 
	C42.557278,67.733315 42.557278,112.570236 42.557278,157.898041 
	C57.139286,157.898041 70.871094,157.898041 85.355347,157.898041 
	C85.355347,167.008041 85.355347,175.648590 85.355347,185.142853 
	C92.095772,178.763290 97.983231,173.191025 103.891571,168.367233 
	C102.711197,170.259766 101.530823,172.152283 100.329666,174.078125 
	C117.538712,179.766159 147.851166,172.374847 156.118927,159.620544 
	C139.810410,161.794891 123.954483,156.686279 108.831238,162.169632 
	C111.229263,158.757599 114.370789,157.573746 118.645874,157.656647 
	C132.470291,157.924728 146.305817,157.602997 160.131393,157.839172 
	C164.173492,157.908218 166.953552,156.588867 169.693863,153.739059 
	C178.231094,144.860657 186.899719,136.098846 195.791245,127.577568 
	C198.074249,125.389641 198.894638,123.349518 198.885376,120.306824 
	C198.789429,88.815384 198.829697,57.323540 198.816940,25.831808 
	C198.816284,24.223856 198.677689,22.615961 198.593689,20.799881 
	C196.790268,20.711803 195.315018,20.577618 193.839676,20.576696 
	C144.686066,20.546055 95.532471,20.526691 46.378868,20.520809 
	C45.560410,20.520710 44.741924,20.707170 43.234951,20.778593 
	C43.108536,21.185640 42.982121,21.592688 42.557278,22.896389 
M73.822723,163.468491 
	C75.159515,164.717789 76.307587,166.424683 77.890388,167.077484 
	C79.257019,167.641129 81.118095,167.005920 82.760590,166.900681 
	C82.484848,164.701111 82.284660,160.612213 81.921532,160.597687 
	C78.708420,160.469193 75.466400,161.063461 72.232918,161.444199 
	C72.554413,161.977371 72.875908,162.510559 73.822723,163.468491 
M142.412018,3.485172 
	C142.412018,3.485172 142.522720,3.420647 142.412018,3.485172 
z"/>
<path fill="#030303" opacity="1.000000" stroke="none" 
	d="
M61.785313,218.301804 
	C62.100620,218.140961 62.404560,218.317001 62.849068,218.718414 
	C62.584408,218.842072 62.179176,218.740372 61.785313,218.301804 
z"/>
<path fill="#060606" opacity="1.000000" stroke="none" 
	d="
M135.519958,2.190350 
	C134.785873,2.844563 133.591034,3.925870 132.393433,3.928946 
	C97.565323,4.018404 62.736923,4.007296 27.908651,3.958907 
	C27.025505,3.957680 26.143190,3.356203 25.140453,2.664828 
	C50.578114,2.218475 76.135773,2.127317 101.693512,2.072239 
	C112.814903,2.048272 123.936455,2.098403 135.519958,2.190350 
z"/>
<path fill="#060606" opacity="1.000000" stroke="none" 
	d="
M217.278992,3.442886 
	C197.894272,3.928782 178.435196,3.981193 158.976166,3.964817 
	C157.719055,3.963759 156.462402,3.432535 154.956451,2.750923 
	C174.819366,2.267464 194.931351,2.171611 215.043427,2.132838 
	C215.763275,2.131451 216.484207,2.693835 217.278992,3.442886 
z"/>
<path fill="#060606" opacity="1.000000" stroke="none" 
	d="
M152.830292,2.215425 
	C151.209991,2.524109 149.213150,2.741863 147.117279,2.604031 
	C148.830093,2.207129 150.641937,2.165812 152.830292,2.215425 
z"/>
<path fill="#FDFDFD" opacity="1.000000" stroke="none" 
	d="
M103.870682,167.618774 
	C97.983231,173.191025 92.095772,178.763290 85.355347,185.142853 
	C85.355347,175.648590 85.355347,167.008041 85.355347,157.898041 
	C70.871094,157.898041 57.139286,157.898041 42.557278,157.898041 
	C42.557278,112.570236 42.557278,67.733315 42.964790,22.330723 
	C43.556015,21.445562 43.739735,21.126068 43.923454,20.806572 
	C44.741924,20.707170 45.560410,20.520710 46.378868,20.520809 
	C95.532471,20.526691 144.686066,20.546055 193.839676,20.576696 
	C195.315018,20.577618 196.790268,20.711803 198.593689,20.799881 
	C198.677689,22.615961 198.816284,24.223856 198.816940,25.831808 
	C198.829697,57.323540 198.789429,88.815384 198.885376,120.306824 
	C198.894638,123.349518 198.074249,125.389641 195.791245,127.577568 
	C186.899719,136.098846 178.231094,144.860657 169.693863,153.739059 
	C166.953552,156.588867 164.173492,157.908218 160.131393,157.839172 
	C146.305817,157.602997 132.470291,157.924728 118.645874,157.656647 
	C114.370789,157.573746 111.229263,158.757599 108.438568,162.643555 
	C106.654152,164.617905 105.262421,166.118332 103.870682,167.618774 
M113.617744,79.500801 
	C113.617744,72.583641 113.617744,65.666481 113.617744,58.916634 
	C106.696190,58.916634 100.640228,58.916634 94.794724,58.916634 
	C94.794724,77.898018 94.794724,96.434418 94.794724,115.044525 
	C101.155205,115.044525 107.076942,115.044525 113.617699,115.044525 
	C113.617699,103.366432 113.617699,91.933517 113.617744,79.500801 
M156.477753,58.494934 
	C153.370483,58.494934 150.263229,58.494934 147.073120,58.494934 
	C147.073120,77.681755 147.073120,96.203461 147.073120,114.995392 
	C153.308701,114.995392 159.200165,114.995392 165.283783,114.995392 
	C165.283783,96.078491 165.283783,77.437462 165.283783,58.495018 
	C162.370789,58.495018 159.895996,58.495018 156.477753,58.494934 
z"/>
<path fill="#131313" opacity="1.000000" stroke="none" 
	d="
M103.881126,167.993011 
	C105.262421,166.118332 106.654152,164.617905 108.327682,162.991608 
	C123.954483,156.686279 139.810410,161.794891 156.118927,159.620544 
	C147.851166,172.374847 117.538712,179.766159 100.329666,174.078125 
	C101.530823,172.152283 102.711197,170.259766 103.881126,167.993011 
z"/>
<path fill="#121212" opacity="1.000000" stroke="none" 
	d="
M73.510063,163.256104 
	C72.875908,162.510559 72.554413,161.977371 72.232918,161.444214 
	C75.466400,161.063461 78.708420,160.469193 81.921532,160.597687 
	C82.284660,160.612213 82.484848,164.701111 82.760590,166.900681 
	C81.118095,167.005920 79.257019,167.641129 77.890388,167.077484 
	C76.307587,166.424683 75.159515,164.717789 73.510063,163.256104 
z"/>
<path fill="#060606" opacity="1.000000" stroke="none" 
	d="
M142.467377,3.452909 
	C142.522720,3.420647 142.412018,3.485172 142.467377,3.452909 
z"/>
<path fill="#ECECEC" opacity="1.000000" stroke="none" 
	d="
M43.579201,20.792583 
	C43.739735,21.126068 43.556015,21.445562 43.113998,21.882397 
	C42.982121,21.592688 43.108536,21.185640 43.579201,20.792583 
z"/>
<path fill="#1D1D1D" opacity="1.000000" stroke="none" 
	d="
M113.617722,80.000702 
	C113.617699,91.933517 113.617699,103.366432 113.617699,115.044525 
	C107.076942,115.044525 101.155205,115.044525 94.794724,115.044525 
	C94.794724,96.434418 94.794724,77.898018 94.794724,58.916634 
	C100.640228,58.916634 106.696190,58.916634 113.617744,58.916634 
	C113.617744,65.666481 113.617744,72.583641 113.617722,80.000702 
z"/>
<path fill="#191919" opacity="1.000000" stroke="none" 
	d="
M156.949478,58.494976 
	C159.895996,58.495018 162.370789,58.495018 165.283783,58.495018 
	C165.283783,77.437462 165.283783,96.078491 165.283783,114.995392 
	C159.200165,114.995392 153.308701,114.995392 147.073120,114.995392 
	C147.073120,96.203461 147.073120,77.681755 147.073120,58.494934 
	C150.263229,58.494934 153.370483,58.494934 156.949478,58.494976 
z"/>
</svg>