<?xml version="1.0" encoding="UTF-8"?>
<svg version="1.1" xmlns="http://www.w3.org/2000/svg" width="225" height="225">
<path d="M0 0 C74.25 0 148.5 0 225 0 C225 74.25 225 148.5 225 225 C150.75 225 76.5 225 0 225 C0 150.75 0 76.5 0 0 Z " fill="#FDFDFD" transform="translate(0,0)"/>
<path d="M0 0 C7.56505211 0.36393493 15.13126023 0.53515329 22.70294189 0.69455624 C38.22569894 1.02545439 53.73096198 1.58481632 69.24085331 2.30491161 C79.79217677 87.60319088 79.79217677 87.60319088 58.85935879 114.51917362 C53.49049287 121.04709499 47.60534972 126.92376842 41.42835331 132.67991161 C40.77776825 133.3020668 40.12718319 133.92422199 39.45688343 134.56523037 C26.34544008 147.0887898 14.00030876 158.13240134 -4.95836544 158.03147411 C-8.1039536 157.82500861 -11.20046559 157.57695676 -14.32144833 157.13392162 C-17.65205435 157.36754376 -18.59477157 158.88339046 -20.75914669 161.30491161 C-21.41914669 161.30491161 -22.07914669 161.30491161 -22.75914669 161.30491161 C-23.01534786 161.89916943 -23.27154903 162.49342724 -23.53551388 163.10569286 C-24.8787698 165.51990861 -26.20489229 166.75388387 -28.33727169 168.49241161 C-31.43221814 171.10927691 -34.30954125 173.82006425 -37.11852169 176.74241161 C-37.84168575 177.49135693 -38.56484982 178.24030224 -39.30992794 179.01194286 C-40.79918897 180.56468927 -42.28076345 182.12483829 -43.75524044 183.69163036 C-44.47324825 184.43026318 -45.19125607 185.16889599 -45.93102169 185.92991161 C-46.57136349 186.60280224 -47.21170528 187.27569286 -47.87145138 187.96897411 C-48.49439083 188.40983349 -49.11733028 188.85069286 -49.75914669 189.30491161 C-51.07914669 188.97491161 -52.39914669 188.64491161 -53.75914669 188.30491161 C-53.75914669 177.74491161 -53.75914669 167.18491161 -53.75914669 156.30491161 C-66.29914669 156.30491161 -78.83914669 156.30491161 -91.75914669 156.30491161 C-92.48836586 140.95204336 -93.07467694 125.60804703 -93.41713619 110.24242687 C-93.5805713 103.10284492 -93.80311533 95.97508828 -94.17320919 88.84299755 C-96.93789245 34.27339225 -96.93789245 34.27339225 -81.72571468 16.52003002 C-60.85803205 -5.34288739 -27.71083522 -1.35614517 0 0 Z " fill="#F8F8F8" transform="translate(123.75914669036865,16.695088386535645)"/>
<path d="M0 0 C1.17886858 0.00081715 1.17886858 0.00081715 2.3815527 0.00165081 C3.28317135 -0.00254368 4.18479 -0.00673817 5.11373043 -0.01105976 C6.60138157 -0.0026305 6.60138157 -0.0026305 8.11908627 0.00596905 C9.16140408 0.0040707 10.20372189 0.00217236 11.27762508 0.00021648 C14.73584074 -0.00349959 18.19384814 0.0072241 21.65204525 0.01842022 C24.04575736 0.01961157 26.43946994 0.02006528 28.83318233 0.01980877 C33.85445734 0.02137503 38.87566119 0.02967614 43.8969183 0.04307842 C50.34927473 0.06007759 56.80155294 0.06389259 63.25392914 0.06313324 C68.19768178 0.06340451 73.14141715 0.06887856 78.08516407 0.07613468 C80.46513329 0.07932779 82.84510447 0.08129024 85.22507572 0.08202839 C88.54394685 0.08418466 91.8627332 0.0929131 95.18158627 0.1036253 C96.17537792 0.10317211 97.16916958 0.10271893 98.19307613 0.10225201 C99.09187496 0.10651699 99.99067379 0.11078197 100.91670895 0.1151762 C102.09501199 0.11768997 102.09501199 0.11768997 103.29711914 0.12025452 C105.085639 0.24888897 105.085639 0.24888897 106.085639 1.24888897 C107.06929004 10.55384042 107.2559157 19.97162401 107.51488686 29.320261 C107.63800841 33.6540075 107.80820612 37.97313243 108.10199642 42.2989378 C109.16794317 58.41541518 110.14050935 73.48935175 99.05006409 86.35471344 C97.36851491 88.16975554 95.64162401 89.9155856 93.87079525 91.64342022 C93.31291506 92.19611017 92.75503487 92.74880013 92.18024921 93.31823826 C85.04958498 100.15032084 79.36049564 103.44175759 69.15025997 103.25841045 C68.05643505 103.17276836 66.96261013 103.08712627 65.835639 102.99888897 C55.83267417 102.09679415 55.83267417 102.09679415 47.15967464 106.66878033 C41.61584107 111.70250459 36.74972558 117.37370079 32.11493587 123.24522686 C30.085639 125.24888897 30.085639 125.24888897 26.085639 125.24888897 C26.085639 117.65888897 26.085639 110.06888897 26.085639 102.24888897 C23.08856869 102.28369366 23.08856869 102.28369366 20.0309515 102.31920147 C18.09817661 102.33310632 16.16540048 102.34694103 14.23261166 102.35875225 C12.2265254 102.37377004 10.22052576 102.39917878 8.21454525 102.42467022 C6.95770931 102.43111553 5.70087337 102.43756084 4.4059515 102.44420147 C3.24337826 102.4546751 2.08080502 102.46514874 0.88300228 102.47593975 C-1.914361 102.24888897 -1.914361 102.24888897 -3.914361 100.24888897 C-4.11336805 97.15564695 -4.18697682 94.15189123 -4.17315006 91.05748272 C-4.17840702 89.62808865 -4.17840702 89.62808865 -4.18377018 88.16981792 C-4.19259853 85.00860162 -4.18673442 81.8476077 -4.179986 78.68638897 C-4.18133233 76.49685403 -4.1832726 74.30731937 -4.18578434 72.11778545 C-4.1887371 67.52441346 -4.18443305 62.93111914 -4.17510319 58.33775616 C-4.16370861 52.43923034 -4.17026726 46.5408865 -4.18224812 40.64236736 C-4.1894626 36.11976523 -4.18718068 31.5972065 -4.18199253 27.07460308 C-4.18065489 24.89920817 -4.18230771 22.72380936 -4.18695164 20.548419 C-4.19201009 17.51227099 -4.18431618 14.47642094 -4.17315006 11.44029522 C-4.17719852 10.53425549 -4.18124699 9.62821575 -4.18541813 8.69472027 C-4.1296143 0.5368974 -4.1296143 0.5368974 0 0 Z " fill="#FBFBFB" transform="translate(73.91436100006104,31.751111030578613)"/>
<path d="M0 0 C7.56505211 0.36393493 15.13126023 0.53515329 22.70294189 0.69455624 C38.22569894 1.02545439 53.73096198 1.58481632 69.24085331 2.30491161 C79.79217677 87.60319088 79.79217677 87.60319088 58.85935879 114.51917362 C53.49049287 121.04709499 47.60534972 126.92376842 41.42835331 132.67991161 C40.77776825 133.3020668 40.12718319 133.92422199 39.45688343 134.56523037 C26.34544008 147.0887898 14.00030876 158.13240134 -4.95836544 158.03147411 C-8.1039536 157.82500861 -11.20046559 157.57695676 -14.32144833 157.13392162 C-17.65205435 157.36754376 -18.59477157 158.88339046 -20.75914669 161.30491161 C-21.41914669 161.30491161 -22.07914669 161.30491161 -22.75914669 161.30491161 C-23.01534786 161.89916943 -23.27154903 162.49342724 -23.53551388 163.10569286 C-24.8787698 165.51990861 -26.20489229 166.75388387 -28.33727169 168.49241161 C-31.43221814 171.10927691 -34.30954125 173.82006425 -37.11852169 176.74241161 C-37.84168575 177.49135693 -38.56484982 178.24030224 -39.30992794 179.01194286 C-40.79918897 180.56468927 -42.28076345 182.12483829 -43.75524044 183.69163036 C-44.47324825 184.43026318 -45.19125607 185.16889599 -45.93102169 185.92991161 C-46.57136349 186.60280224 -47.21170528 187.27569286 -47.87145138 187.96897411 C-48.49439083 188.40983349 -49.11733028 188.85069286 -49.75914669 189.30491161 C-51.07914669 188.97491161 -52.39914669 188.64491161 -53.75914669 188.30491161 C-53.75914669 177.74491161 -53.75914669 167.18491161 -53.75914669 156.30491161 C-66.29914669 156.30491161 -78.83914669 156.30491161 -91.75914669 156.30491161 C-92.48836586 140.95204336 -93.07467694 125.60804703 -93.41713619 110.24242687 C-93.5805713 103.10284492 -93.80311533 95.97508828 -94.17320919 88.84299755 C-96.93789245 34.27339225 -96.93789245 34.27339225 -81.72571468 16.52003002 C-60.85803205 -5.34288739 -27.71083522 -1.35614517 0 0 Z M-82.93321896 26.74070263 C-94.19100067 46.00830979 -91.01834265 71.39162464 -89.88774776 92.74314404 C-89.58209373 98.80588164 -89.45826162 104.8736775 -89.31917846 110.94206989 C-88.99891699 124.74185641 -88.43302005 138.51809804 -87.75914669 152.30491161 C-74.88914669 152.30491161 -62.01914669 152.30491161 -48.75914669 152.30491161 C-48.75914669 161.54491161 -48.75914669 170.78491161 -48.75914669 180.30491161 C-44.67016967 178.26042311 -42.68761221 176.09555542 -39.88414669 172.67600536 C-22.92920066 152.9778755 -22.92920066 152.9778755 -12.12633419 151.71116161 C-7.24365642 151.54788135 -2.54269115 151.9481336 2.31116581 152.42600536 C6.57933204 152.73414231 6.57933204 152.73414231 10.27234745 150.89451122 C12.08640642 148.78849277 13.63973807 146.57618005 15.24085331 144.30491161 C16.70434254 142.73857272 18.19956799 141.20142597 19.72132206 139.69163036 C20.49282597 138.91883739 21.26432987 138.14604443 22.05921268 137.34983349 C23.23193729 136.18290966 23.23193729 136.18290966 24.42835331 134.99241161 C25.22177128 134.19512646 26.01518925 133.3978413 26.83265018 132.57639599 C27.6002869 131.81004833 28.36792362 131.04370068 29.15882206 130.25413036 C29.84742313 129.56665722 30.53602421 128.87918407 31.24549198 128.17087841 C33.24085331 126.30491161 33.24085331 126.30491161 35.49598026 124.68308544 C36.07178837 124.22828808 36.64759647 123.77349072 37.24085331 123.30491161 C37.24085331 122.64491161 37.24085331 121.98491161 37.24085331 121.30491161 C37.78560307 121.05386669 38.33035282 120.80282177 38.89161015 120.54416943 C49.51038245 114.9426222 62.29484294 104.75287484 65.99201298 92.89591503 C68.78947485 79.71837228 67.59589446 65.74842692 66.88880253 52.39994335 C66.63986493 47.1922798 66.5329755 41.98169664 66.41272831 36.76975536 C66.15799978 26.60729355 65.75048923 16.45756791 65.24085331 6.30491161 C49.87345012 5.57324332 34.50737767 5.03058876 19.1265564 4.69873428 C11.97950943 4.54035427 4.84353313 4.32465095 -2.29650021 3.96628857 C-48.02108833 1.01837647 -48.02108833 1.01837647 -82.93321896 26.74070263 Z " fill="#080808" transform="translate(123.75914669036865,16.695088386535645)"/>
<path d="M0 0 C1.17886858 0.00081715 1.17886858 0.00081715 2.3815527 0.00165081 C3.28317135 -0.00254368 4.18479 -0.00673817 5.11373043 -0.01105976 C6.60138157 -0.0026305 6.60138157 -0.0026305 8.11908627 0.00596905 C9.16140408 0.0040707 10.20372189 0.00217236 11.27762508 0.00021648 C14.73584074 -0.00349959 18.19384814 0.0072241 21.65204525 0.01842022 C24.04575736 0.01961157 26.43946994 0.02006528 28.83318233 0.01980877 C33.85445734 0.02137503 38.87566119 0.02967614 43.8969183 0.04307842 C50.34927473 0.06007759 56.80155294 0.06389259 63.25392914 0.06313324 C68.19768178 0.06340451 73.14141715 0.06887856 78.08516407 0.07613468 C80.46513329 0.07932779 82.84510447 0.08129024 85.22507572 0.08202839 C88.54394685 0.08418466 91.8627332 0.0929131 95.18158627 0.1036253 C96.17537792 0.10317211 97.16916958 0.10271893 98.19307613 0.10225201 C99.09187496 0.10651699 99.99067379 0.11078197 100.91670895 0.1151762 C102.09501199 0.11768997 102.09501199 0.11768997 103.29711914 0.12025452 C105.085639 0.24888897 105.085639 0.24888897 106.085639 1.24888897 C107.06929004 10.55384042 107.2559157 19.97162401 107.51488686 29.320261 C107.63800841 33.6540075 107.80820612 37.97313243 108.10199642 42.2989378 C109.16794317 58.41541518 110.14050935 73.48935175 99.05006409 86.35471344 C97.36851491 88.16975554 95.64162401 89.9155856 93.87079525 91.64342022 C93.31291506 92.19611017 92.75503487 92.74880013 92.18024921 93.31823826 C85.04958498 100.15032084 79.36049564 103.44175759 69.15025997 103.25841045 C68.05643505 103.17276836 66.96261013 103.08712627 65.835639 102.99888897 C55.83267417 102.09679415 55.83267417 102.09679415 47.15967464 106.66878033 C41.61584107 111.70250459 36.74972558 117.37370079 32.11493587 123.24522686 C30.085639 125.24888897 30.085639 125.24888897 26.085639 125.24888897 C26.085639 117.65888897 26.085639 110.06888897 26.085639 102.24888897 C23.08856869 102.28369366 23.08856869 102.28369366 20.0309515 102.31920147 C18.09817661 102.33310632 16.16540048 102.34694103 14.23261166 102.35875225 C12.2265254 102.37377004 10.22052576 102.39917878 8.21454525 102.42467022 C6.95770931 102.43111553 5.70087337 102.43756084 4.4059515 102.44420147 C3.24337826 102.4546751 2.08080502 102.46514874 0.88300228 102.47593975 C-1.914361 102.24888897 -1.914361 102.24888897 -3.914361 100.24888897 C-4.11336805 97.15564695 -4.18697682 94.15189123 -4.17315006 91.05748272 C-4.17840702 89.62808865 -4.17840702 89.62808865 -4.18377018 88.16981792 C-4.19259853 85.00860162 -4.18673442 81.8476077 -4.179986 78.68638897 C-4.18133233 76.49685403 -4.1832726 74.30731937 -4.18578434 72.11778545 C-4.1887371 67.52441346 -4.18443305 62.93111914 -4.17510319 58.33775616 C-4.16370861 52.43923034 -4.17026726 46.5408865 -4.18224812 40.64236736 C-4.1894626 36.11976523 -4.18718068 31.5972065 -4.18199253 27.07460308 C-4.18065489 24.89920817 -4.18230771 22.72380936 -4.18695164 20.548419 C-4.19201009 17.51227099 -4.18431618 14.47642094 -4.17315006 11.44029522 C-4.17719852 10.53425549 -4.18124699 9.62821575 -4.18541813 8.69472027 C-4.1296143 0.5368974 -4.1296143 0.5368974 0 0 Z M1.085639 5.24888897 C1.085639 35.60888897 1.085639 65.96888897 1.085639 97.24888897 C10.655639 97.57888897 20.225639 97.90888897 30.085639 98.24888897 C30.580639 107.65388897 30.580639 107.65388897 31.085639 117.24888897 C35.83547682 113.17759941 38.45102557 110.78378618 41.94818783 106.15391827 C44.63260305 102.83087391 47.19226705 100.11705658 51.085639 98.24888897 C54.21266663 97.91865598 57.13510548 98.03307856 60.27109432 98.23541546 C70.40174989 98.79675219 78.14158454 98.58959639 86.239151 91.81729221 C87.83191014 90.38386243 89.36099199 88.90606774 90.87860775 87.39342022 C91.67343563 86.61511852 91.67343563 86.61511852 92.48432064 85.82109356 C102.02384704 76.16121408 104.41195817 67.3426599 104.43250751 54.00623798 C104.36043378 48.56513732 103.94238866 43.188532 103.585639 37.74888897 C103.090639 27.02388897 102.595639 16.29888897 102.085639 5.24888897 C68.755639 5.24888897 35.425639 5.24888897 1.085639 5.24888897 Z " fill="#131313" transform="translate(73.91436100006104,31.751111030578613)"/>
<path d="M0 0 C1.48831242 0.00667405 2.97660807 0.01863442 4.46484375 0.03515625 C5.22345703 0.03966797 5.98207031 0.04417969 6.76367188 0.04882812 C8.64326246 0.06064945 10.52281274 0.07858547 12.40234375 0.09765625 C12.42698949 6.06078791 12.44517775 12.0238902 12.45727539 17.98706055 C12.46231653 20.01733923 12.46914932 22.04761427 12.4777832 24.07788086 C12.48985842 26.98942972 12.49557409 29.90093075 12.5 32.8125 C12.50516129 33.72603745 12.51032257 34.63957489 12.51564026 35.58079529 C12.51583543 37.75341052 12.4644618 39.92592921 12.40234375 42.09765625 C11.40234375 43.09765625 11.40234375 43.09765625 8.3125 43.23046875 C7.04277344 43.22789063 5.77304688 43.2253125 4.46484375 43.22265625 C2.56412109 43.22652344 2.56412109 43.22652344 0.625 43.23046875 C-2.59765625 43.09765625 -2.59765625 43.09765625 -4.59765625 42.09765625 C-4.62230263 36.27694003 -4.64049055 30.45625391 -4.65258789 24.63549805 C-4.65762892 22.65372184 -4.66446163 20.67194936 -4.6730957 18.69018555 C-4.6851714 15.84813516 -4.6908867 13.00613378 -4.6953125 10.1640625 C-4.70047379 9.27239883 -4.70563507 8.38073517 -4.71095276 7.46205139 C-4.71114802 5.34025024 -4.65975655 3.21854845 -4.59765625 1.09765625 C-3.59765625 0.09765625 -3.59765625 0.09765625 0 0 Z " fill="#191919" transform="translate(111.59765625,54.90234375)"/>
<path d="M0 0 C2.47923801 -0.02685095 4.9581884 -0.04676547 7.4375 -0.0625 C8.14455078 -0.07087891 8.85160156 -0.07925781 9.58007812 -0.08789062 C11.38693559 -0.09653588 13.19387603 -0.05220011 15 0 C16.92257175 1.92257175 16.12908424 4.78085108 16.13894653 7.33874512 C16.1369223 8.22727173 16.13489807 9.11579834 16.1328125 10.03125 C16.13424759 11.39062683 16.13424759 11.39062683 16.13571167 12.77746582 C16.13639353 14.69751047 16.13453882 16.61755741 16.13037109 18.53759766 C16.12502292 21.48735704 16.13031588 24.43696414 16.13671875 27.38671875 C16.13605797 29.24739617 16.13477681 31.1080735 16.1328125 32.96875 C16.13483673 33.85727661 16.13686096 34.74580322 16.13894653 35.66125488 C16.11494988 41.88505012 16.11494988 41.88505012 15 43 C12.66839945 43.09909302 10.33370058 43.12970504 8 43.125 C6.72125 43.12757812 5.4425 43.13015625 4.125 43.1328125 C1 43 1 43 0 42 C-0.08874135 38.89748799 -0.11518455 35.8173188 -0.09765625 32.71484375 C-0.0962413 31.78402481 -0.09482635 30.85320587 -0.09336853 29.8941803 C-0.08775172 26.90858809 -0.0751964 23.92306971 -0.0625 20.9375 C-0.05748716 18.91862087 -0.05292388 16.89974057 -0.04882812 14.88085938 C-0.03777683 9.92054428 -0.02050095 4.96028468 0 0 Z " fill="#0A0A0A" transform="translate(144,55)"/>
<path d="M0 0 C2.31 0 4.62 0 7 0 C7 11.22 7 22.44 7 34 C4.69 34 2.38 34 0 34 C0 22.78 0 11.56 0 0 Z " fill="#ECECEC" transform="translate(148,59)"/>
<path d="M0 0 C2.31 0 4.62 0 7 0 C7 10.89 7 21.78 7 33 C4.69 33 2.38 33 0 33 C0 22.11 0 11.22 0 0 Z " fill="#F7F7F7" transform="translate(112,60)"/>
</svg>
