<svg version="1.1" id="Layer_1" xmlns="http://www.w3.org/2000/svg" xmlns:xlink="http://www.w3.org/1999/xlink" x="0px" y="0px"
	 width="100%" viewBox="0 0 225 225" enable-background="new 0 0 225 225" xml:space="preserve">
<path fill="#FEFEFE" opacity="1.000000" stroke="none" 
	d="
M145.000000,226.000000 
	C96.666672,226.000000 48.833340,226.000000 1.000006,226.000000 
	C1.000004,151.000000 1.000004,76.000015 1.000002,1.000016 
	C75.999992,1.000011 150.999985,1.000011 225.999969,1.000005 
	C225.999985,75.999985 225.999985,150.999969 226.000000,225.999969 
	C199.166672,226.000000 172.333328,226.000000 145.000000,226.000000 
M158.484756,167.759842 
	C162.993607,167.759842 167.502441,167.759842 173.071472,167.759842 
	C156.471786,145.516739 140.805634,124.524551 125.024139,103.377800 
	C139.734421,87.507172 154.096329,72.012405 168.648285,56.312592 
	C163.192307,54.790031 159.781662,56.419792 156.400040,60.256218 
	C148.040344,69.740204 139.157547,78.763062 130.486115,87.972321 
	C127.468689,91.176903 124.454628,94.384666 121.043388,98.011642 
	C112.598808,86.790932 104.110641,76.519432 96.812637,65.462379 
	C91.916267,58.043964 86.574554,54.333805 77.408661,55.549980 
	C70.663589,56.444946 63.704323,55.725586 55.825588,55.725586 
	C71.742126,77.127159 86.898285,97.506317 102.225273,118.115181 
	C86.970703,134.510880 71.910194,150.697998 56.554371,167.202530 
	C62.137470,168.668579 65.502304,167.122391 68.758385,163.455582 
	C78.258400,152.757217 88.179253,142.433548 97.861671,131.895477 
	C100.507050,129.016327 102.893463,125.899208 105.398720,122.891296 
	C106.788605,124.229424 106.996117,124.257263 107.083382,124.374573 
	C114.334061,134.120300 122.404305,143.378510 128.595917,153.757309 
	C135.474747,165.288086 144.315903,170.387100 158.484756,167.759842 
z"/>
<path fill="#0D0D0D" opacity="1.000000" stroke="none" 
	d="
M157.987885,167.762741 
	C144.315903,170.387100 135.474747,165.288086 128.595917,153.757309 
	C122.404305,143.378510 114.334061,134.120300 107.083382,124.374573 
	C106.996117,124.257263 106.788605,124.229424 105.398720,122.891296 
	C102.893463,125.899208 100.507050,129.016327 97.861671,131.895477 
	C88.179253,142.433548 78.258400,152.757217 68.758385,163.455582 
	C65.502304,167.122391 62.137470,168.668579 56.554371,167.202530 
	C71.910194,150.697998 86.970703,134.510880 102.225273,118.115181 
	C86.898285,97.506317 71.742126,77.127159 55.825588,55.725586 
	C63.704323,55.725586 70.663589,56.444946 77.408661,55.549980 
	C86.574554,54.333805 91.916267,58.043964 96.812637,65.462379 
	C104.110641,76.519432 112.598808,86.790932 121.043388,98.011642 
	C124.454628,94.384666 127.468689,91.176903 130.486115,87.972321 
	C139.157547,78.763062 148.040344,69.740204 156.400040,60.256218 
	C159.781662,56.419792 163.192307,54.790031 168.648285,56.312592 
	C154.096329,72.012405 139.734421,87.507172 125.024139,103.377800 
	C140.805634,124.524551 156.471786,145.516739 173.071472,167.759842 
	C167.502441,167.759842 162.993607,167.759842 157.987885,167.762741 
M128.165314,141.313751 
	C132.445053,147.044281 136.673599,152.814423 141.049744,158.470352 
	C141.878387,159.541336 143.257034,160.807083 144.443268,160.872620 
	C149.336121,161.142960 154.252594,160.985855 159.702591,160.985855 
	C159.101471,159.686783 158.932465,159.061066 158.571609,158.578903 
	C135.173782,127.315620 111.767479,96.058662 88.316139,64.835541 
	C87.570084,63.842243 86.377518,62.563820 85.340866,62.514427 
	C80.284126,62.273449 75.209625,62.405373 69.008644,62.405373 
	C89.104408,89.205223 108.425133,114.971489 128.165314,141.313751 
z"/>
<path fill="#F7F7F7" opacity="1.000000" stroke="none" 
	d="
M127.955582,141.025757 
	C108.425133,114.971489 89.104408,89.205223 69.008644,62.405373 
	C75.209625,62.405373 80.284126,62.273449 85.340866,62.514427 
	C86.377518,62.563820 87.570084,63.842243 88.316139,64.835541 
	C111.767479,96.058662 135.173782,127.315620 158.571609,158.578903 
	C158.932465,159.061066 159.101471,159.686783 159.702591,160.985855 
	C154.252594,160.985855 149.336121,161.142960 144.443268,160.872620 
	C143.257034,160.807083 141.878387,159.541336 141.049744,158.470352 
	C136.673599,152.814423 132.445053,147.044281 127.955582,141.025757 
z"/>
</svg>