<?xml version="1.0" encoding="UTF-8"?>
<svg version="1.1" xmlns="http://www.w3.org/2000/svg" width="225" height="225">
<path d="M0 0 C74.25 0 148.5 0 225 0 C225 74.25 225 148.5 225 225 C150.75 225 76.5 225 0 225 C0 150.75 0 76.5 0 0 Z " fill="#FEFEFE" transform="translate(0,0)"/>
<path d="M0 0 C6.93630183 -0.33140944 13.8705473 -0.55796646 20.81298828 -0.71411133 C23.1705348 -0.77923067 25.52756136 -0.86776199 27.88330078 -0.98071289 C48.52510411 -1.94516078 48.52510411 -1.94516078 53.58691406 2.61767578 C56.30634001 5.78165962 58.1117127 9.29480486 60 13 C61.19450764 14.68141793 62.42086491 16.34097535 63.6875 17.96875 C64.79275684 19.4783691 65.89692901 20.98878296 67 22.5 C71.06623767 28.04698073 75.1597064 33.56527625 79.375 39 C83.70432723 44.58368529 87.88135584 50.25920828 92 56 C97.03745005 51.82354269 101.57829097 47.44311277 106 42.625 C106.61302979 41.96306641 107.22605957 41.30113281 107.85766602 40.61914062 C111.47460851 36.70122768 115.01939833 32.73057438 118.49609375 28.6875 C120.648803 26.27199248 122.9607802 24.03086906 125.265625 21.76171875 C127.00080425 19.99918307 128.63103381 18.18202049 130.25 16.3125 C130.83265625 15.65894531 131.4153125 15.00539063 132.015625 14.33203125 C133.53090181 12.55128271 134.9649716 10.70112267 136.359375 8.82421875 C142.72607727 0.61784614 142.72607727 0.61784614 146.96240234 -0.53320312 C151.3644933 -1.02496452 155.61958788 -0.63844063 160 0 C153.3979369 7.72924461 146.73420302 15.36240379 139.75 22.75 C131.1680484 31.86712898 122.67609113 41.06031942 114.3515625 50.4140625 C112.58188897 52.36011546 110.7912583 54.26102622 108.9609375 56.1484375 C108.44853516 56.6846875 107.93613281 57.2209375 107.40820312 57.7734375 C106.40406519 58.82234592 105.3900111 59.86187113 104.36523438 60.890625 C101.77711433 63.50882577 101.77711433 63.50882577 100.91015625 66.94921875 C102.52437735 69.98673158 104.49324092 72.70198134 106.5625 75.4375 C107.03921143 76.0778418 107.51592285 76.71818359 108.00708008 77.37792969 C113.05197215 84.12991965 118.1826535 90.81818179 123.30053711 97.51489258 C127.23245225 102.66319268 131.11722727 107.83618162 134.90234375 113.09375 C150.16747495 134.33033439 150.16747495 134.33033439 166.3671875 154.8515625 C168 157 168 157 168 159 C161.04499581 159.28014984 154.09145622 159.47203192 147.13208008 159.60424805 C144.76792038 159.65938644 142.4041328 159.734323 140.04125977 159.82983398 C119.29996625 160.646902 119.29996625 160.646902 114.52368164 156.67822266 C112.21857426 153.87386757 110.61413593 151.23956916 109 148 C107.79810949 146.31355769 106.57223486 144.64368384 105.3125 143 C104.29458674 141.58182944 103.2767106 140.16363215 102.25927734 138.74511719 C99.57186535 135.02087893 96.84720977 131.3238361 94.125 127.625 C93.52091309 126.80418945 92.91682617 125.98337891 92.29443359 125.13769531 C87.95907765 119.26308379 83.53949112 113.46146465 79.06640625 107.69140625 C76.62739881 104.51470279 74.29134753 101.28426479 72 98 C68.45560466 99.47946859 66.49749421 101.42240727 64 104.3125 C60.44501567 108.36204025 56.85074135 112.36135199 53.1875 116.3125 C52.15619648 117.42703382 51.12494697 118.54161761 50.09375 119.65625 C49.32224609 120.48962891 49.32224609 120.48962891 48.53515625 121.33984375 C47.052456 122.94327278 45.57254164 124.54921626 44.09375 126.15625 C39.78895503 130.8322855 35.4763684 135.49975533 31.12109375 140.12890625 C30.45762939 140.83426514 29.79416504 141.53962402 29.1105957 142.26635742 C27.82542559 143.6311692 26.53889267 144.99469952 25.25073242 146.35668945 C24.65494385 146.98921631 24.05915527 147.62174316 23.4453125 148.2734375 C22.86185059 148.88727295 22.27838867 149.5011084 21.67724609 150.13354492 C19.9696428 151.97623013 19.9696428 151.97623013 18.49853516 154.0168457 C15.76071034 157.66129296 14.80364645 158.85794128 10.1328125 159.68359375 C8.79514614 159.63769343 7.45828027 159.55506638 6.125 159.4375 C5.43664063 159.40591797 4.74828125 159.37433594 4.0390625 159.34179688 C2.35750108 159.26005431 0.67816503 159.13450941 -1 159 C2.91583561 153.30134492 7.3620393 148.47914266 12.33984375 143.6875 C15.07071941 140.92855366 17.59682907 138.05199363 20.13696289 135.11914062 C23.25061089 131.57747313 26.50394874 128.16993275 29.75 124.75 C35.28094351 118.89901108 40.77426759 113.02213884 46.1796875 107.0546875 C48.34740463 104.68021818 50.57476713 102.37124872 52.8203125 100.0703125 C53.79750244 99.05735107 53.79750244 99.05735107 54.79443359 98.02392578 C56.07625789 96.69729364 57.36797797 95.38013652 58.67041016 94.07373047 C59.24839355 93.47189941 59.82637695 92.87006836 60.421875 92.25 C61.20449707 91.45335938 61.20449707 91.45335938 62.00292969 90.640625 C63.20240731 89.03473658 63.20240731 89.03473658 62.8137207 87.01586914 C61.95111149 84.87888616 60.96429601 83.31972805 59.55859375 81.49609375 C58.81283081 80.51721191 58.81283081 80.51721191 58.05200195 79.51855469 C57.51921631 78.83180664 56.98643066 78.14505859 56.4375 77.4375 C55.33530378 75.99397324 54.23374235 74.54996156 53.1328125 73.10546875 C52.59430664 72.40212402 52.05580078 71.6987793 51.50097656 70.97412109 C49.56491618 68.42776711 47.68351576 65.84442469 45.8125 63.25 C39.69794133 54.80667866 33.39333073 46.51057466 27.06665039 38.22583008 C15.96311944 23.68467344 15.96311944 23.68467344 10.81640625 16.5 C9.40897463 14.56288982 7.98102128 12.6520287 6.52734375 10.75 C6.10702881 10.19836182 5.68671387 9.64672363 5.25366211 9.07836914 C4.06860998 7.52730092 2.87821623 5.98031804 1.6875 4.43359375 C0 2 0 2 0 0 Z " fill="#060606" transform="translate(29,33)"/>
<path d="M0 0 C20.27160198 -1.78324255 20.27160198 -1.78324255 25.88671875 1.88671875 C27.90228921 4.81170062 29.41446096 7.8216985 31 11 C32.77573262 13.57724432 34.70329011 16.03054306 36.625 18.5 C37.65915008 19.86890768 38.69032454 21.24006761 39.71875 22.61328125 C40.25113281 23.32307129 40.78351563 24.03286133 41.33203125 24.76416016 C44.28496547 28.72244054 47.20280271 32.70650684 50.125 36.6875 C54.04564231 42.02716292 57.99772639 47.33165682 62.0625 52.5625 C65.91163058 57.52304349 69.59722454 62.58101348 73.25 67.6875 C77.68270933 73.87812062 82.23543396 79.9489949 86.9375 85.9375 C93.5367427 94.34485467 99.89157818 102.9141333 106.19726562 111.54296875 C108.09538174 114.13000025 110.00697225 116.70662262 111.921875 119.28125 C112.56253906 120.14435791 113.20320313 121.00746582 113.86328125 121.89672852 C115.09283026 123.55251482 116.32449893 125.20672987 117.55859375 126.85913086 C118.38810547 127.97880249 118.38810547 127.97880249 119.234375 129.12109375 C119.72131836 129.7752124 120.20826172 130.42933105 120.70996094 131.10327148 C122.00260376 133.00382828 123.02226994 134.92246792 124 137 C116.37455796 138.36812939 108.50919003 139.32415505 101 137 C94.68095999 132.43261098 90.76888797 125.41434797 86.77148438 118.85644531 C84.11334962 114.57031292 81.11972834 110.55413003 78.125 106.5 C77.06861876 105.02986141 76.01388131 103.55854001 74.9609375 102.0859375 C71.51568933 97.30272887 67.92639323 92.64073744 64.3125 87.984375 C58.76837521 80.82945719 53.39757916 73.54618 48.04077148 66.25073242 C41.27069701 57.03290913 34.38073978 47.91769274 27.41503906 38.84716797 C19.62452858 28.67756785 12.06953995 18.32962825 4.48291016 8.0078125 C3.44987222 6.60911247 2.3899307 5.23005411 1.31005859 3.8671875 C0 2 0 2 0 0 Z " fill="#FAFAFA" transform="translate(51,44)"/>
</svg>
