<svg version="1.1" id="Layer_1" xmlns="http://www.w3.org/2000/svg" xmlns:xlink="http://www.w3.org/1999/xlink" x="0px" y="0px"
	 width="100%" viewBox="0 0 225 225" enable-background="new 0 0 225 225" xml:space="preserve">
<path fill="#010101" opacity="1.000000" stroke="none" 
	d="
M150.000000,226.000000 
	C100.000000,226.000000 50.500008,226.000000 1.000007,226.000000 
	C1.000004,151.000000 1.000004,76.000015 1.000002,1.000017 
	C75.999992,1.000011 150.999985,1.000011 225.999969,1.000006 
	C225.999985,75.999985 225.999985,150.999969 226.000000,225.999969 
	C200.833328,226.000000 175.666672,226.000000 150.000000,226.000000 
M143.775055,177.024597 
	C154.164825,177.024597 164.554596,177.024597 175.915909,177.024597 
	C158.690216,151.916489 142.083527,127.710617 125.441162,103.452766 
	C140.876602,85.463959 156.053864,67.776031 171.384445,49.909428 
	C163.637283,47.728741 159.175201,50.688965 154.905640,56.039993 
	C146.185715,66.968651 136.787704,77.356651 127.655563,87.955757 
	C125.335930,90.648003 122.965836,93.296761 120.444740,96.163582 
	C110.206856,81.297516 100.330238,66.886734 90.336365,52.557728 
	C89.397675,51.211845 87.739525,49.482552 86.382324,49.453041 
	C74.964592,49.204777 63.539127,49.311619 51.028503,49.311619 
	C67.645500,73.546448 83.672256,96.920448 99.750702,120.369835 
	C83.598564,139.178070 67.710190,157.679169 51.575020,176.467636 
	C61.442055,177.807861 61.456295,177.820114 67.064133,171.305405 
	C73.800804,163.479309 80.496254,155.617706 87.235512,147.793854 
	C92.939133,141.172302 98.679703,134.582581 104.630295,127.717613 
	C105.848007,129.365204 106.761948,130.528519 107.598595,131.744980 
	C117.219482,145.733673 126.898186,159.683624 136.376617,173.768311 
	C138.076553,176.294357 139.871826,177.567749 143.775055,177.024597 
z"/>
<path fill="#F5F5F5" opacity="1.000000" stroke="none" 
	d="
M143.315063,177.024597 
	C139.871826,177.567749 138.076553,176.294357 136.376617,173.768311 
	C126.898186,159.683624 117.219482,145.733673 107.598595,131.744980 
	C106.761948,130.528519 105.848007,129.365204 104.630295,127.717613 
	C98.679703,134.582581 92.939133,141.172302 87.235512,147.793854 
	C80.496254,155.617706 73.800804,163.479309 67.064133,171.305405 
	C61.456295,177.820114 61.442055,177.807861 51.575020,176.467636 
	C67.710190,157.679169 83.598564,139.178070 99.750702,120.369835 
	C83.672256,96.920448 67.645500,73.546448 51.028503,49.311619 
	C63.539127,49.311619 74.964592,49.204777 86.382324,49.453041 
	C87.739525,49.482552 89.397675,51.211845 90.336365,52.557728 
	C100.330238,66.886734 110.206856,81.297516 120.444740,96.163582 
	C122.965836,93.296761 125.335930,90.648003 127.655563,87.955757 
	C136.787704,77.356651 146.185715,66.968651 154.905640,56.039993 
	C159.175201,50.688965 163.637283,47.728741 171.384445,49.909428 
	C156.053864,67.776031 140.876602,85.463959 125.441162,103.452766 
	C142.083527,127.710617 158.690216,151.916489 175.915909,177.024597 
	C164.554596,177.024597 154.164825,177.024597 143.315063,177.024597 
M146.664413,148.849121 
	C126.292923,119.671883 105.933861,90.485939 85.511917,61.344059 
	C84.528831,59.941208 83.070992,58.015564 81.697998,57.895840 
	C76.851868,57.473255 71.946381,57.731407 66.941017,57.731407 
	C67.127457,58.713245 67.094261,59.080162 67.255585,59.311314 
	C92.283455,95.172646 117.320435,131.027618 142.395325,166.856064 
	C143.011459,167.736404 144.031250,168.906876 144.902542,168.941498 
	C149.922134,169.140945 154.953720,169.038696 160.775284,169.038696 
	C155.791946,161.935089 151.416489,155.698029 146.664413,148.849121 
z"/>
<path fill="#060606" opacity="1.000000" stroke="none" 
	d="
M146.852722,149.155060 
	C151.416489,155.698029 155.791946,161.935089 160.775284,169.038696 
	C154.953720,169.038696 149.922134,169.140945 144.902542,168.941498 
	C144.031250,168.906876 143.011459,167.736404 142.395325,166.856064 
	C117.320435,131.027618 92.283455,95.172646 67.255585,59.311314 
	C67.094261,59.080162 67.127457,58.713245 66.941017,57.731407 
	C71.946381,57.731407 76.851868,57.473255 81.697998,57.895840 
	C83.070992,58.015564 84.528831,59.941208 85.511917,61.344059 
	C105.933861,90.485939 126.292923,119.671883 146.852722,149.155060 
z"/>
</svg>