<svg version="1.1" id="Layer_1" xmlns="http://www.w3.org/2000/svg" xmlns:xlink="http://www.w3.org/1999/xlink" x="0px" y="0px"
	 width="100%" viewBox="0 0 225 225" enable-background="new 0 0 225 225" xml:space="preserve">
<path fill="#010101" opacity="1.000000" stroke="none" 
	d="
M150.000000,226.000000 
	C100.000000,226.000000 50.500008,226.000000 1.000007,226.000000 
	C1.000004,151.000000 1.000004,76.000015 1.000002,1.000017 
	C75.999992,1.000011 150.999985,1.000011 225.999969,1.000006 
	C225.999985,75.999985 225.999985,150.999969 226.000000,225.999969 
	C200.833328,226.000000 175.666672,226.000000 150.000000,226.000000 
M144.705490,177.035477 
	C154.776642,177.035477 164.847778,177.035477 175.915176,177.035477 
	C158.724884,151.977356 142.123215,127.777229 125.433998,103.449501 
	C140.777206,85.575424 155.977905,67.867393 171.434341,49.861404 
	C164.464050,48.214310 159.947189,49.784363 155.680847,55.057575 
	C144.395584,69.006165 132.417374,82.394127 120.514320,96.238564 
	C110.273842,81.381691 100.295860,66.853149 90.225563,52.388885 
	C89.359581,51.145058 87.898109,49.468601 86.685204,49.445160 
	C75.119400,49.221672 63.547535,49.311733 51.016056,49.311733 
	C67.614975,73.511841 83.652908,96.894073 99.756401,120.371880 
	C83.618713,139.161530 67.734421,157.656158 51.449177,176.617630 
	C58.001736,177.632080 62.904163,177.469208 66.845009,171.779724 
	C70.992271,165.792206 76.234787,160.561539 81.017593,155.016418 
	C88.794922,145.999496 96.587578,136.995804 104.638458,127.680252 
	C105.927246,129.463348 106.917084,130.776535 107.848351,132.130020 
	C117.184311,145.698624 126.629959,159.194489 135.750229,172.906723 
	C137.855301,176.071671 140.023285,177.733521 144.705490,177.035477 
z"/>
<path fill="#F4F4F4" opacity="1.000000" stroke="none" 
	d="
M144.239731,177.032593 
	C140.023285,177.733521 137.855301,176.071671 135.750229,172.906723 
	C126.629959,159.194489 117.184311,145.698624 107.848351,132.130020 
	C106.917084,130.776535 105.927246,129.463348 104.638458,127.680252 
	C96.587578,136.995804 88.794922,145.999496 81.017593,155.016418 
	C76.234787,160.561539 70.992271,165.792206 66.845009,171.779724 
	C62.904163,177.469208 58.001736,177.632080 51.449177,176.617630 
	C67.734421,157.656158 83.618713,139.161530 99.756401,120.371880 
	C83.652908,96.894073 67.614975,73.511841 51.016056,49.311733 
	C63.547535,49.311733 75.119400,49.221672 86.685204,49.445160 
	C87.898109,49.468601 89.359581,51.145058 90.225563,52.388885 
	C100.295860,66.853149 110.273842,81.381691 120.514320,96.238564 
	C132.417374,82.394127 144.395584,69.006165 155.680847,55.057575 
	C159.947189,49.784363 164.464050,48.214310 171.434341,49.861404 
	C155.977905,67.867393 140.777206,85.575424 125.433998,103.449501 
	C142.123215,127.777229 158.724884,151.977356 175.915176,177.035477 
	C164.847778,177.035477 154.776642,177.035477 144.239731,177.032593 
M130.957153,150.529404 
	C134.571899,155.713028 138.145325,160.926361 141.833252,166.057388 
	C142.655716,167.201706 143.832336,168.843033 144.928436,168.910294 
	C149.932587,169.217285 154.966125,169.045074 160.711700,169.045074 
	C158.624268,166.021042 157.137619,163.846588 155.630157,161.686630 
	C132.313690,128.277893 109.009010,94.860886 85.628731,61.496857 
	C84.574448,59.992378 82.922256,58.050270 81.390007,57.896996 
	C76.678757,57.425724 71.890396,57.725323 66.110382,57.725323 
	C87.967476,89.007622 109.254974,119.474709 130.957153,150.529404 
z"/>
<path fill="#060606" opacity="1.000000" stroke="none" 
	d="
M130.749817,150.235596 
	C109.254974,119.474709 87.967476,89.007622 66.110382,57.725323 
	C71.890396,57.725323 76.678757,57.425724 81.390007,57.896996 
	C82.922256,58.050270 84.574448,59.992378 85.628731,61.496857 
	C109.009010,94.860886 132.313690,128.277893 155.630157,161.686630 
	C157.137619,163.846588 158.624268,166.021042 160.711700,169.045074 
	C154.966125,169.045074 149.932587,169.217285 144.928436,168.910294 
	C143.832336,168.843033 142.655716,167.201706 141.833252,166.057388 
	C138.145325,160.926361 134.571899,155.713028 130.749817,150.235596 
z"/>
</svg>