<svg version="1.1" id="Layer_1" xmlns="http://www.w3.org/2000/svg" xmlns:xlink="http://www.w3.org/1999/xlink" x="0px" y="0px"
	 width="100%" viewBox="0 0 225 225" enable-background="new 0 0 225 225" xml:space="preserve">
<path fill="#FEFEFE" opacity="1.000000" stroke="none" 
	d="
M145.000000,226.000000 
	C96.666672,226.000000 48.833340,226.000000 1.000006,226.000000 
	C1.000004,151.000000 1.000004,76.000015 1.000002,1.000016 
	C75.999992,1.000011 150.999985,1.000011 225.999969,1.000005 
	C225.999985,75.999985 225.999985,150.999969 226.000000,225.999969 
	C199.166672,226.000000 172.333328,226.000000 145.000000,226.000000 
M157.491440,167.758377 
	C162.328323,167.758377 167.165207,167.758377 173.067245,167.758377 
	C156.457947,145.503174 140.792343,124.512474 125.018723,103.377022 
	C139.718506,87.517319 154.082596,72.019806 168.658707,56.293530 
	C163.461380,54.951664 160.057556,56.146675 156.741226,59.895580 
	C147.704468,70.111069 138.188156,79.902084 128.873428,89.872086 
	C126.429153,92.488319 124.026962,95.143883 121.214867,98.206802 
	C112.693810,86.919876 104.132484,76.882446 97.119400,65.859940 
	C91.917702,57.684410 85.896263,54.412312 76.404137,55.578285 
	C69.973671,56.368179 63.367672,55.729050 55.828419,55.729050 
	C71.748062,77.133224 86.903481,97.509895 102.230225,118.116913 
	C86.961517,134.526886 71.901360,150.712708 56.556992,167.203979 
	C62.143379,168.664139 65.523674,167.106537 68.773674,163.450821 
	C78.278320,152.759598 88.185234,142.426865 97.869453,131.893814 
	C100.510895,129.020874 102.922768,125.936859 105.810165,122.510429 
	C114.423157,134.123627 122.777740,143.763702 129.230392,154.542389 
	C135.777710,165.479187 144.097656,170.167267 157.491440,167.758377 
z"/>
<path fill="#0C0C0C" opacity="1.000000" stroke="none" 
	d="
M156.993652,167.772705 
	C144.097656,170.167267 135.777710,165.479187 129.230392,154.542389 
	C122.777740,143.763702 114.423157,134.123627 105.810165,122.510429 
	C102.922768,125.936859 100.510895,129.020874 97.869453,131.893814 
	C88.185234,142.426865 78.278320,152.759598 68.773674,163.450821 
	C65.523674,167.106537 62.143379,168.664139 56.556992,167.203979 
	C71.901360,150.712708 86.961517,134.526886 102.230225,118.116913 
	C86.903481,97.509895 71.748062,77.133224 55.828419,55.729050 
	C63.367672,55.729050 69.973671,56.368179 76.404137,55.578285 
	C85.896263,54.412312 91.917702,57.684410 97.119400,65.859940 
	C104.132484,76.882446 112.693810,86.919876 121.214867,98.206802 
	C124.026962,95.143883 126.429153,92.488319 128.873428,89.872086 
	C138.188156,79.902084 147.704468,70.111069 156.741226,59.895580 
	C160.057556,56.146675 163.461380,54.951664 168.658707,56.293530 
	C154.082596,72.019806 139.718506,87.517319 125.018723,103.377022 
	C140.792343,124.512474 156.457947,145.503174 173.067245,167.758377 
	C167.165207,167.758377 162.328323,167.758377 156.993652,167.772705 
M129.934113,120.539520 
	C116.118370,102.022911 102.318588,83.494316 88.447044,65.019608 
	C87.619247,63.917114 86.256386,62.561878 85.074928,62.493607 
	C80.162155,62.209717 75.223473,62.374252 69.804756,62.374252 
	C70.274971,63.606380 70.374641,64.261490 70.724823,64.728935 
	C94.252678,96.136261 117.791962,127.535072 141.389297,158.890167 
	C142.097626,159.831360 143.408066,160.849991 144.478760,160.896881 
	C149.369064,161.111069 154.274017,160.990936 160.430756,160.990936 
	C149.881271,147.005798 140.117096,134.061752 129.934113,120.539520 
z"/>
<path fill="#F7F7F7" opacity="1.000000" stroke="none" 
	d="
M130.143524,120.828613 
	C140.117096,134.061752 149.881271,147.005798 160.430756,160.990936 
	C154.274017,160.990936 149.369064,161.111069 144.478760,160.896881 
	C143.408066,160.849991 142.097626,159.831360 141.389297,158.890167 
	C117.791962,127.535072 94.252678,96.136261 70.724823,64.728935 
	C70.374641,64.261490 70.274971,63.606380 69.804756,62.374252 
	C75.223473,62.374252 80.162155,62.209717 85.074928,62.493607 
	C86.256386,62.561878 87.619247,63.917114 88.447044,65.019608 
	C102.318588,83.494316 116.118370,102.022911 130.143524,120.828613 
z"/>
</svg>