<?xml version="1.0" standalone="no"?>
<!DOCTYPE svg PUBLIC "-//W3C//DTD SVG 20010904//EN"
 "http://www.w3.org/TR/2001/REC-SVG-20010904/DTD/svg10.dtd">
<svg version="1.0" xmlns="http://www.w3.org/2000/svg"
 width="225.000000pt" height="225.000000pt" viewBox="0 0 225.000000 225.000000"
 preserveAspectRatio="xMidYMid meet">

<g transform="translate(0.000000,225.000000) scale(0.100000,-0.100000)"
fill="#000000" stroke="none">
<path d="M560 1693 c0 -5 39 -60 86 -123 48 -63 149 -199 226 -303 l140 -187
-48 -53 c-52 -57 -268 -289 -351 -378 -29 -31 -53 -59 -53 -62 0 -4 16 -7 35
-7 41 0 29 -11 270 248 98 106 183 191 188 189 6 -2 83 -100 171 -218 l161
-214 164 -3 c135 -2 162 0 158 11 -3 8 -57 83 -120 168 -63 85 -167 224 -230
309 l-115 154 30 36 c17 19 116 126 220 238 l189 202 -45 0 c-39 0 -48 -5 -82
-42 -20 -24 -96 -105 -168 -182 -72 -76 -140 -149 -151 -162 -11 -13 -26 -24
-32 -24 -6 0 -80 92 -164 205 l-154 205 -162 0 c-90 0 -163 -3 -163 -7z m663
-548 l368 -490 -87 -3 c-79 -3 -88 -1 -101 18 -9 12 -172 231 -364 487 -192
255 -349 469 -349 474 0 6 35 9 83 7 l82 -3 368 -490z"/>
</g>
</svg>
