<?xml version="1.0" standalone="no"?>
<!DOCTYPE svg PUBLIC "-//W3C//DTD SVG 20010904//EN"
 "http://www.w3.org/TR/2001/REC-SVG-20010904/DTD/svg10.dtd">
<svg version="1.0" xmlns="http://www.w3.org/2000/svg"
 width="512.000000pt" height="512.000000pt" viewBox="0 0 512.000000 512.000000"
 preserveAspectRatio="xMidYMid meet">

<g transform="translate(0.000000,512.000000) scale(0.100000,-0.100000)"
fill="#000000" stroke="none">
<path d="M2130 4194 c-696 -28 -1173 -78 -1365 -144 -177 -61 -321 -206 -364
-367 -16 -60 -49 -301 -67 -488 -21 -221 -30 -825 -15 -1045 24 -356 71 -674
115 -772 70 -159 226 -282 415 -328 369 -91 1359 -149 2081 -121 616 24 1116
76 1296 136 189 63 331 200 378 365 18 65 60 354 80 560 52 505 44 954 -25
1425 -31 212 -54 308 -95 385 -65 125 -216 242 -364 284 -101 28 -557 73 -985
96 -194 11 -932 20 -1085 14z m1225 -228 c264 -20 552 -51 695 -75 125 -21
210 -61 277 -127 61 -61 77 -104 107 -279 104 -617 104 -1117 0 -1830 -28
-194 -51 -253 -117 -311 -106 -91 -234 -124 -647 -169 -611 -65 -1512 -73
-2140 -19 -393 34 -600 70 -711 125 -128 65 -170 125 -213 304 -77 325 -110
815 -87 1285 18 373 61 722 98 794 44 88 130 156 246 195 137 47 538 91 1122
125 173 10 1166 -3 1370 -18z"/>
<path d="M1950 2560 c0 -445 3 -810 6 -810 11 0 1414 804 1414 810 0 6 -1403
810 -1414 810 -3 0 -6 -364 -6 -810z m628 225 c210 -120 382 -222 382 -225 0
-5 -376 -224 -752 -438 l-58 -33 0 471 0 471 23 -13 c13 -7 195 -112 405 -233z"/>
</g>
</svg>
