<?xml version="1.0" standalone="no"?>
<!DOCTYPE svg PUBLIC "-//W3C//DTD SVG 20010904//EN"
 "http://www.w3.org/TR/2001/REC-SVG-20010904/DTD/svg10.dtd">
<svg version="1.0" xmlns="http://www.w3.org/2000/svg"
 width="400.000000pt" height="400.000000pt" viewBox="0 0 400.000000 400.000000"
 preserveAspectRatio="xMidYMid meet">

<g transform="translate(0.000000,400.000000) scale(0.100000,-0.100000)"
fill="#000000" stroke="none">
<path d="M1845 3189 c-281 -35 -571 -193 -756 -412 -382 -452 -382 -1102 0
-1554 249 -294 645 -454 1025 -415 313 33 600 182 797 415 382 452 382 1102 0
1554 -258 305 -665 462 -1066 412z m653 -679 c129 -15 194 -61 222 -159 21
-69 34 -403 21 -538 -15 -166 -26 -207 -70 -253 -54 -56 -109 -69 -361 -81
-231 -12 -685 -5 -810 12 -132 18 -194 62 -219 154 -32 121 -37 481 -10 655
17 112 68 176 162 201 101 27 857 34 1065 9z"/>
<path d="M1850 2000 l0 -221 43 25 c23 14 106 63 184 108 79 46 143 85 143 88
0 5 -80 52 -322 193 l-48 27 0 -220z"/>
</g>
</svg>
