<svg version="1.1" id="Layer_1" xmlns="http://www.w3.org/2000/svg" xmlns:xlink="http://www.w3.org/1999/xlink" x="0px" y="0px"
	 width="100%" viewBox="0 0 224 224" enable-background="new 0 0 224 224" xml:space="preserve">
<path fill="#000000" opacity="1.000000" stroke="none" 
	d="
M83.772339,185.364838 
	C68.975479,185.023300 54.758102,183.464218 40.663204,181.049820 
	C25.867580,178.515411 18.977005,170.058105 16.667448,153.387070 
	C13.686989,131.873276 13.026989,110.310631 14.785933,88.686668 
	C15.363857,81.581818 16.523642,74.522690 17.471073,67.449860 
	C19.053694,55.635185 26.546371,49.186253 37.488850,46.626026 
	C50.791733,43.513531 64.432938,42.595215 78.037155,41.721733 
	C100.162048,40.301163 122.300743,40.367939 144.423569,41.734638 
	C157.692734,42.554379 170.977585,43.415268 184.094803,45.711258 
	C194.652298,47.559216 202.192474,55.192085 204.443436,65.728844 
	C210.643127,94.749725 210.085480,123.826088 205.744202,153.036575 
	C204.298752,162.762390 202.317245,171.666290 193.035507,177.117706 
	C187.238174,180.522644 180.800705,181.388016 174.394577,182.207916 
	C144.449875,186.040421 114.405479,187.450378 83.772339,185.364838 
M136.177658,51.401821 
	C121.690628,51.388550 107.198280,51.122448 92.717957,51.427620 
	C75.588371,51.788631 58.509281,53.117279 41.648552,56.366383 
	C33.545086,57.927937 28.467966,62.485107 27.484533,69.234840 
	C23.433195,97.040924 22.513819,124.867027 27.396029,152.692245 
	C29.616753,165.348816 33.739223,169.377609 46.174946,171.790192 
	C65.708084,175.579681 85.519508,175.795090 105.275513,176.498642 
	C121.914452,177.091217 138.538742,175.825256 155.117508,174.520004 
	C164.047256,173.816956 173.017136,172.873734 181.756531,170.713181 
	C189.803619,168.723770 193.555603,164.279053 194.757599,156.282471 
	C196.015945,147.910782 197.040833,139.527420 197.880508,131.095428 
	C199.840393,111.413940 198.624939,91.922775 195.314728,72.525543 
	C193.295288,60.691998 188.426743,56.914165 176.316208,55.189346 
	C163.291870,53.334385 150.172821,52.786720 136.177658,51.401821 
z"/>
<path fill="#000000" opacity="1.000000" stroke="none" 
	d="
M136.618988,121.708199 
	C119.904327,131.192184 103.503296,140.484238 86.195328,150.290115 
	C86.195328,125.335991 86.195328,101.696480 86.195328,76.579865 
	C107.750824,88.891365 128.617233,100.809296 150.666306,113.402710 
	C145.347260,116.545082 141.139938,119.030678 136.618988,121.708199 
M107.883255,100.676109 
	C104.322075,98.688133 100.760895,96.700165 96.742722,94.457077 
	C96.742722,107.269455 96.742722,119.256187 96.742722,132.581528 
	C108.118866,126.089691 118.531662,120.147583 130.017349,113.593224 
	C122.183105,109.014153 115.353516,105.022293 107.883255,100.676109 
z"/>
</svg>